<?xml version="1.0" standalone="no"?>
<!DOCTYPE svg PUBLIC "-//W3C//DTD SVG 20010904//EN"
 "http://www.w3.org/TR/2001/REC-SVG-20010904/DTD/svg10.dtd">
<svg version="1.0" xmlns="http://www.w3.org/2000/svg"
 width="2597.000000pt" height="2597.000000pt" viewBox="0 0 2597.000000 2597.000000"
 preserveAspectRatio="xMidYMid meet">
<metadata>
Created by potrace 1.14, written by Peter Selinger 2001-2017
</metadata>
<g transform="translate(0.000000,2597.000000) scale(0.100000,-0.100000)"
fill="#000000" stroke="none">
<path d="M8317 25963 c-1 -1 -22 -4 -47 -6 -25 -3 -45 -6 -45 -7 0 -1 -17 -3
-39 -5 -21 -2 -44 -9 -50 -15 -7 -5 -16 -7 -19 -3 -4 3 -13 1 -20 -5 -8 -7
-17 -9 -20 -5 -4 3 -7 1 -7 -5 0 -6 -7 -9 -15 -6 -10 4 -15 0 -15 -12 0 -14
-3 -15 -8 -6 -16 24 -48 0 -43 -31 1 -5 -3 -6 -9 -2 -6 3 -8 11 -5 16 3 5 -1
6 -9 3 -9 -3 -13 -10 -10 -15 3 -5 -1 -6 -9 -3 -8 3 -17 -2 -21 -11 -3 -9 -10
-13 -16 -10 -6 3 -13 -1 -16 -9 -3 -9 -10 -13 -15 -10 -5 3 -9 -3 -9 -12 0
-10 -3 -14 -7 -11 -3 4 -13 -2 -20 -13 -8 -12 -20 -17 -26 -13 -7 4 -5 -2 3
-13 8 -10 10 -16 6 -12 -5 4 -16 2 -24 -5 -13 -10 -15 -9 -8 3 4 8 0 6 -8 -5
-9 -11 -14 -26 -11 -33 4 -10 0 -12 -11 -8 -12 5 -15 2 -10 -9 4 -11 -3 -19
-19 -25 -14 -5 -25 -13 -25 -18 0 -4 -9 -18 -21 -30 -11 -12 -17 -27 -14 -32
3 -6 2 -10 -4 -10 -6 0 -15 -10 -22 -21 -9 -17 -8 -20 3 -14 7 3 6 1 -3 -7
-20 -18 -79 -128 -68 -128 5 0 0 -9 -11 -20 -15 -15 -19 -29 -15 -53 4 -23 3
-28 -4 -17 -9 13 -10 13 -15 0 -2 -8 -9 -30 -15 -49 -6 -18 -8 -38 -4 -44 4
-6 1 -7 -6 -2 -9 5 -12 1 -10 -11 2 -11 0 -25 -4 -31 -5 -7 -5 -13 0 -13 4 0
2 -4 -5 -8 -7 -5 -14 -17 -16 -28 -2 -11 -11 -44 -20 -73 -9 -30 -13 -57 -11
-62 3 -4 1 -10 -5 -14 -6 -4 -8 -10 -5 -14 2 -5 -2 -32 -11 -60 -8 -29 -17
-66 -19 -84 -3 -18 -7 -43 -10 -57 -3 -14 -7 -42 -10 -64 -3 -21 -7 -42 -10
-46 -3 -5 0 -12 6 -16 8 -5 8 -8 0 -14 -7 -4 -13 -32 -15 -62 -2 -31 -6 -60
-9 -65 -7 -11 -15 -122 -18 -240 -1 -40 -5 -73 -9 -73 -4 0 -7 -35 -8 -77 0
-43 -1 -82 -2 -88 -1 -5 -1 -12 0 -15 6 -15 6 -50 0 -50 -8 0 -6 -37 3 -46 4
-4 2 -13 -4 -21 -9 -10 -8 -13 2 -13 11 0 11 -2 -1 -10 -12 -8 -14 -59 -14
-341 0 -245 3 -334 11 -336 8 -3 9 -12 3 -29 -5 -13 -6 -24 -1 -24 5 0 5 -18
1 -40 -4 -22 -5 -40 -1 -40 3 0 6 -55 6 -123 1 -67 4 -162 8 -212 5 -49 10
-135 13 -190 3 -55 7 -107 10 -115 5 -13 12 -81 15 -143 0 -10 5 -15 11 -11 8
5 9 1 4 -12 -10 -23 -10 -17 -1 -129 4 -49 10 -92 13 -95 4 -3 7 -23 8 -45 0
-22 4 -65 8 -95 4 -30 9 -73 11 -94 3 -22 10 -43 16 -47 8 -5 8 -8 -2 -11 -8
-3 -9 -9 -4 -18 7 -12 11 -31 17 -107 1 -13 4 -23 8 -23 3 0 5 -20 6 -44 0
-24 4 -52 9 -62 7 -18 9 -35 13 -107 1 -16 6 -26 11 -23 4 3 7 -8 5 -24 -2
-16 0 -32 5 -35 5 -3 7 -14 4 -25 -3 -11 -1 -20 3 -20 5 0 10 -15 10 -32 2
-51 8 -88 14 -88 3 0 6 -18 7 -41 1 -22 6 -46 11 -52 5 -7 8 -20 7 -29 -2 -9
3 -22 11 -29 12 -9 12 -15 2 -27 -10 -12 -11 -16 0 -19 6 -3 9 -9 6 -14 -3 -6
-2 -15 3 -22 5 -7 10 -28 12 -47 2 -19 7 -37 12 -38 5 -2 7 -8 4 -13 -3 -4 1
-34 10 -66 17 -61 24 -88 30 -113 2 -8 4 -16 5 -17 2 -2 3 -6 4 -10 9 -46 32
-112 44 -125 10 -12 11 -18 3 -18 -9 0 -9 -5 0 -22 13 -24 20 -100 9 -93 -4 2
-14 -12 -24 -31 -9 -20 -12 -33 -7 -30 5 4 13 2 16 -4 4 -6 1 -9 -5 -8 -14 3
-53 -59 -45 -72 3 -4 -2 -11 -11 -14 -9 -4 -14 -13 -10 -21 3 -8 1 -15 -4 -15
-6 0 -10 -6 -10 -12 0 -7 -7 -26 -15 -42 -8 -15 -12 -33 -8 -39 3 -5 1 -7 -4
-4 -10 6 -29 -37 -25 -55 1 -5 -2 -8 -7 -8 -6 0 -8 -9 -6 -20 2 -11 0 -18 -4
-15 -11 6 -23 -23 -15 -36 3 -5 1 -9 -4 -9 -14 0 -22 -38 -8 -44 6 -2 3 -5 -7
-5 -10 -1 -15 -5 -12 -11 3 -5 2 -10 -3 -10 -9 0 -26 -55 -23 -72 0 -5 -4 -8
-10 -8 -5 0 -8 -4 -4 -9 3 -5 1 -12 -5 -16 -6 -4 -8 -11 -5 -16 4 -5 2 -9 -4
-9 -6 0 -8 -7 -5 -15 4 -8 2 -15 -4 -15 -5 0 -12 -14 -16 -30 -8 -40 -8 -41
-22 -69 -7 -14 -11 -28 -8 -33 3 -4 0 -8 -6 -8 -7 0 -10 -7 -6 -15 3 -8 1 -15
-3 -15 -5 0 -11 -7 -14 -14 -4 -11 -1 -13 10 -9 12 5 10 0 -5 -15 -12 -12 -19
-30 -17 -42 2 -11 0 -18 -6 -15 -9 6 -11 1 -13 -27 -1 -7 -4 -15 -7 -18 -4 -3
-10 -16 -14 -29 -5 -18 -4 -22 6 -17 8 4 6 1 -3 -7 -10 -8 -19 -23 -21 -33 -2
-10 -7 -27 -11 -36 -4 -9 -5 -21 -2 -26 3 -6 -1 -15 -8 -22 -8 -6 -15 -19 -15
-28 -1 -36 -5 -52 -11 -52 -9 0 -30 -71 -24 -82 3 -4 0 -8 -6 -8 -6 0 -9 -3
-7 -7 3 -5 0 -19 -6 -33 -5 -14 -11 -29 -13 -35 -8 -28 -16 -61 -16 -72 -1 -7
-5 -13 -10 -13 -5 0 -7 -4 -4 -9 3 -5 -1 -25 -9 -45 -9 -20 -13 -41 -10 -46 3
-4 1 -10 -4 -12 -10 -3 -22 -46 -24 -85 -1 -12 -5 -19 -9 -17 -4 3 -8 -3 -8
-13 0 -10 -9 -47 -20 -81 -11 -35 -18 -68 -14 -73 3 -5 1 -9 -4 -9 -5 0 -9 -6
-10 -12 -4 -31 -9 -55 -16 -75 -4 -12 -9 -30 -11 -40 -2 -10 -9 -36 -14 -58
-6 -22 -8 -47 -5 -57 3 -9 0 -19 -6 -23 -6 -3 -8 -11 -5 -16 4 -5 1 -9 -6 -9
-6 0 -9 -8 -6 -20 3 -11 1 -23 -5 -26 -6 -4 -5 -10 3 -15 12 -7 12 -9 0 -9 -8
0 -11 -6 -7 -16 3 -8 2 -12 -4 -9 -5 3 -9 -3 -9 -12 1 -25 -7 -65 -16 -85 -4
-10 -5 -25 -1 -33 3 -8 2 -15 -3 -15 -4 0 -8 -6 -9 -12 -3 -31 -11 -83 -12
-83 -2 0 -9 -35 -15 -75 -2 -14 -4 -25 -5 -25 -4 0 -13 -53 -14 -82 0 -18 -4
-33 -8 -33 -4 0 -7 -8 -7 -17 0 -19 -5 -50 -16 -98 -3 -16 -8 -39 -10 -50 -5
-28 -12 -63 -23 -115 -6 -25 -13 -62 -16 -84 -4 -21 -8 -41 -10 -45 -2 -3 -7
-28 -10 -56 -10 -75 -11 -79 -20 -94 -7 -11 -6 -12 5 -6 11 7 12 6 3 -6 -14
-18 -37 -136 -29 -149 3 -6 2 -10 -4 -10 -5 0 -10 -8 -10 -17 -1 -31 -9 -80
-16 -103 -6 -17 -4 -21 6 -15 9 6 8 2 -2 -11 -9 -10 -16 -33 -16 -50 0 -16 -3
-36 -7 -42 -4 -7 -9 -30 -11 -51 -1 -21 -6 -44 -9 -50 -4 -6 -5 -11 -1 -11 3
0 1 -9 -4 -19 -6 -10 -11 -42 -12 -70 -1 -28 -6 -51 -10 -51 -4 0 -8 -8 -7
-17 0 -10 -3 -29 -6 -43 -3 -14 -8 -40 -10 -59 -3 -18 -7 -36 -10 -39 -3 -3 0
-12 7 -20 8 -11 8 -14 0 -9 -7 5 -14 -7 -19 -35 -4 -24 -7 -46 -6 -50 1 -5 -2
-8 -6 -8 -7 0 -11 -16 -14 -57 -1 -7 -6 -13 -12 -13 -6 0 -4 -5 4 -10 8 -5 10
-10 3 -10 -13 0 -33 -52 -33 -86 0 -13 -5 -24 -11 -24 -6 0 -9 -7 -6 -15 4 -8
2 -17 -4 -21 -6 -3 -8 -12 -5 -20 3 -8 2 -14 -2 -14 -4 0 -16 -28 -26 -63 -10
-34 -22 -66 -26 -72 -4 -5 -6 -18 -5 -27 2 -10 0 -18 -5 -18 -14 0 -21 -33 -8
-42 10 -5 8 -8 -5 -8 -10 0 -16 -4 -12 -9 3 -5 0 -13 -6 -16 -5 -4 -8 -13 -5
-21 3 -8 1 -14 -3 -14 -15 0 -22 -33 -9 -42 10 -6 9 -8 -3 -8 -15 0 -35 -48
-30 -72 0 -5 -4 -8 -11 -8 -6 0 -8 -3 -5 -7 4 -3 1 -13 -6 -21 -10 -13 -9 -14
3 -7 12 7 12 5 -1 -11 -9 -10 -15 -27 -14 -37 2 -11 1 -16 -3 -13 -5 6 -28
-50 -36 -90 -2 -11 -11 -41 -19 -66 -18 -51 -22 -284 -6 -294 5 -3 7 -10 4
-15 -4 -5 -1 -9 5 -9 6 0 8 -4 5 -10 -3 -5 -1 -10 5 -10 6 0 8 -4 5 -10 -3 -5
-1 -10 4 -10 6 0 11 -6 11 -12 0 -15 75 -88 90 -88 5 0 10 -5 10 -12 0 -6 3
-8 7 -5 3 4 15 0 25 -10 10 -9 18 -13 18 -8 0 4 7 2 15 -5 8 -6 18 -9 24 -6 5
3 11 1 13 -6 7 -20 256 -18 268 2 6 10 10 11 10 3 0 -9 7 -10 28 -2 15 6 28
10 30 10 16 -5 42 1 37 9 -3 5 0 7 8 4 7 -2 27 0 43 7 16 6 39 12 52 13 24 2
24 4 5 -58 -5 -14 -3 -17 7 -11 9 5 11 4 6 -4 -4 -6 -11 -9 -15 -6 -8 4 -56
-98 -52 -111 2 -4 -2 -10 -8 -14 -6 -3 -13 -17 -16 -29 -2 -13 -9 -29 -15 -37
-7 -7 -9 -18 -5 -24 3 -5 1 -10 -5 -10 -6 0 -9 -4 -5 -9 3 -5 1 -12 -4 -15 -7
-5 -22 -52 -25 -81 -1 -5 -5 -15 -9 -21 -6 -11 -15 -70 -21 -141 -2 -17 1 -53
5 -80 10 -52 10 -55 27 -96 7 -16 12 -31 12 -35 0 -13 67 -82 73 -75 4 3 7 0
7 -8 0 -15 40 -55 40 -41 0 4 5 -1 11 -11 6 -9 14 -15 20 -12 5 4 9 1 9 -5 0
-6 5 -8 10 -5 6 3 10 1 10 -5 0 -7 7 -9 16 -6 8 3 13 2 10 -3 -12 -19 215 -77
267 -67 13 2 30 0 37 -4 8 -5 22 -4 31 1 11 6 20 5 24 -1 3 -5 12 -7 21 -3 21
8 183 7 222 -2 17 -4 32 -12 32 -17 0 -5 4 -6 10 -3 6 3 10 1 10 -5 0 -6 4 -8
10 -5 5 3 10 1 10 -5 0 -7 7 -9 17 -6 10 4 14 4 10 0 -9 -10 13 -35 24 -28 5
3 8 1 7 -4 -2 -6 0 -10 5 -11 8 -1 114 -111 148 -154 11 -15 25 -25 30 -22 5
4 6 0 3 -8 -3 -9 7 -23 25 -37 17 -12 31 -27 31 -34 0 -8 10 -21 23 -30 12 -9
16 -14 8 -10 -10 5 -12 3 -7 -5 5 -7 14 -10 22 -7 8 3 13 2 13 -2 -3 -20 2
-33 11 -27 6 3 10 0 10 -8 0 -8 16 -31 35 -51 19 -21 35 -42 35 -47 0 -6 5 -7
10 -4 5 3 10 -1 10 -9 0 -8 5 -18 12 -22 7 -5 8 -3 3 6 -5 9 -4 11 3 6 7 -4
12 -13 12 -20 0 -20 37 -49 51 -40 7 4 10 3 5 -4 -9 -14 44 -74 60 -68 7 3 11
0 9 -7 -7 -18 9 -38 32 -40 13 -1 19 -6 16 -15 -4 -8 3 -15 16 -19 14 -3 20
-11 17 -20 -3 -8 -1 -11 4 -8 6 3 10 1 10 -5 0 -6 5 -8 10 -5 6 3 10 -1 10
-10 0 -9 5 -13 10 -10 5 3 10 -2 10 -11 0 -10 3 -14 7 -11 3 4 11 -3 18 -16 6
-12 17 -21 23 -20 7 2 12 -4 12 -12 0 -9 7 -18 15 -22 9 -3 31 -20 50 -37 52
-48 69 -61 78 -61 4 0 22 -16 40 -35 37 -41 93 -90 84 -74 -3 6 0 11 7 11 8 0
12 -6 10 -12 -6 -13 60 -68 70 -58 3 4 6 -2 6 -12 0 -10 3 -16 6 -13 3 3 16
-4 29 -16 40 -37 53 -45 59 -39 3 4 6 1 6 -6 0 -7 7 -11 14 -8 10 4 13 1 10
-8 -3 -7 3 -16 14 -19 11 -4 32 -18 48 -31 15 -13 30 -22 32 -20 2 2 13 -5 25
-16 11 -10 29 -19 39 -19 10 0 17 -6 15 -12 -1 -7 4 -12 11 -11 6 2 12 -2 12
-8 0 -6 7 -9 15 -6 8 4 17 1 21 -5 5 -7 2 -8 -7 -4 -8 4 -3 -2 11 -13 14 -11
30 -21 36 -21 6 0 17 -7 24 -15 7 -8 16 -12 21 -9 5 3 9 0 9 -5 0 -6 7 -11 15
-11 8 0 15 -5 15 -11 0 -5 4 -8 9 -5 5 3 11 -1 15 -9 3 -8 15 -15 26 -15 11 0
20 -4 20 -10 0 -5 7 -10 15 -10 8 0 15 -5 15 -11 0 -5 4 -8 9 -4 5 3 15 -1 23
-8 15 -15 49 -31 61 -29 4 1 7 -2 7 -7 0 -5 59 -39 131 -76 72 -36 128 -62
125 -56 -3 5 5 4 18 -2 13 -7 22 -15 20 -19 -3 -5 3 -8 12 -8 10 0 26 -8 37
-17 15 -13 18 -14 12 -3 -5 9 0 8 13 -4 12 -11 22 -15 22 -11 0 4 8 2 18 -6 9
-8 31 -21 47 -28 17 -7 39 -18 50 -24 14 -7 20 -6 23 2 3 8 10 5 19 -8 8 -12
18 -19 23 -16 4 3 10 1 12 -5 1 -5 15 -11 31 -12 15 -1 27 -6 27 -11 0 -4 5
-5 10 -2 6 3 10 1 10 -4 0 -6 9 -11 19 -11 11 0 23 -5 26 -10 4 -6 10 -8 15
-5 5 3 11 1 15 -5 4 -6 11 -8 16 -5 5 4 9 1 9 -5 0 -6 4 -8 10 -5 6 3 10 1 10
-6 0 -7 3 -10 6 -6 3 3 26 -3 51 -14 35 -15 49 -17 59 -8 12 10 13 8 8 -6 -5
-13 -4 -16 4 -11 7 4 12 2 12 -3 0 -6 8 -11 18 -11 10 0 24 -6 31 -12 11 -11
14 -10 18 0 3 8 10 6 21 -8 10 -11 34 -21 57 -24 55 -7 102 -25 109 -42 3 -8
2 -14 -3 -14 -10 0 -25 -46 -24 -72 0 -10 -4 -15 -8 -12 -9 5 -11 0 -13 -28
-1 -7 -7 -19 -14 -26 -7 -8 -10 -17 -7 -22 3 -5 1 -10 -5 -12 -6 -2 -12 -12
-14 -23 -2 -11 -13 -41 -25 -67 -11 -27 -17 -48 -13 -48 4 0 3 -4 -3 -8 -17
-12 -36 -52 -30 -62 4 -6 1 -10 -5 -10 -7 0 -10 -7 -6 -15 3 -8 1 -15 -4 -15
-6 0 -10 -9 -10 -20 0 -11 -4 -20 -10 -20 -5 0 -9 -3 -8 -7 1 -5 -4 -21 -11
-38 -7 -16 -12 -32 -12 -35 0 -3 -7 -15 -15 -28 -8 -12 -12 -27 -9 -32 3 -6 1
-10 -5 -10 -7 0 -9 -7 -6 -16 4 -10 2 -13 -6 -8 -7 5 -9 0 -6 -14 4 -12 3 -20
-2 -17 -10 6 -22 -24 -14 -36 3 -5 1 -9 -3 -9 -9 0 -39 -69 -35 -82 1 -5 -3
-8 -9 -8 -6 0 -9 -9 -6 -20 3 -11 1 -18 -3 -15 -7 4 -24 -29 -22 -45 0 -3 -5
-14 -11 -25 -6 -11 -10 -23 -9 -27 1 -5 -3 -8 -9 -8 -5 0 -7 -4 -4 -10 3 -5 2
-10 -3 -10 -8 0 -23 -47 -21 -66 0 -4 -3 -10 -8 -13 -13 -9 -65 -133 -58 -139
2 -3 -2 -10 -11 -16 -8 -6 -16 -21 -17 -34 0 -12 -5 -22 -10 -22 -5 0 -7 -7
-3 -15 3 -8 1 -15 -5 -15 -6 0 -7 -4 -4 -10 3 -5 1 -10 -5 -10 -6 0 -8 -5 -5
-10 3 -5 1 -10 -5 -10 -6 0 -9 -4 -6 -9 4 -5 1 -11 -5 -13 -6 -2 -12 -15 -12
-30 -1 -14 -5 -24 -8 -22 -9 5 -26 -38 -23 -58 1 -10 -2 -18 -7 -18 -5 0 -14
-12 -20 -28 -6 -15 -16 -39 -23 -53 -7 -14 -12 -33 -10 -42 1 -10 -1 -15 -6
-12 -10 6 -22 -24 -14 -36 3 -5 1 -9 -4 -9 -10 0 -36 -58 -33 -73 1 -4 -6 -15
-14 -23 -8 -9 -13 -20 -10 -25 4 -5 1 -9 -5 -9 -7 0 -9 -7 -6 -16 3 -8 2 -13
-3 -10 -5 3 -12 -1 -15 -10 -4 -10 -2 -13 7 -8 6 4 4 -2 -7 -14 -10 -12 -16
-28 -13 -36 3 -8 -1 -17 -10 -20 -9 -4 -13 -9 -10 -12 3 -4 -1 -13 -9 -22 -13
-12 -13 -16 -2 -23 10 -7 9 -9 -4 -9 -10 0 -18 -4 -18 -9 0 -5 -5 -22 -11 -38
-6 -15 -10 -29 -9 -31 1 -2 -6 -14 -14 -28 -9 -13 -13 -24 -9 -24 5 0 2 -4 -5
-9 -7 -4 -14 -17 -15 -29 0 -11 -4 -19 -8 -16 -4 2 -9 -3 -13 -11 -3 -8 -1
-15 4 -15 6 0 1 -9 -10 -20 -11 -11 -20 -29 -20 -39 0 -11 -5 -23 -11 -26 -6
-4 -8 -13 -5 -20 2 -7 -2 -16 -10 -19 -8 -3 -14 -14 -14 -25 0 -11 -5 -21 -11
-23 -6 -2 -12 -16 -12 -31 -1 -15 -5 -27 -8 -27 -7 0 -21 -36 -23 -58 -1 -7
-6 -16 -11 -20 -16 -11 -46 -74 -32 -67 6 4 4 0 -7 -9 -10 -8 -15 -19 -11 -25
3 -6 2 -11 -4 -11 -9 0 -28 -44 -20 -46 2 0 -2 -8 -9 -17 -8 -9 -10 -22 -6
-29 4 -7 3 -9 -1 -5 -11 10 -47 -62 -38 -76 3 -5 1 -7 -5 -3 -9 6 -35 -51 -29
-65 1 -3 -6 -13 -15 -22 -9 -10 -15 -26 -13 -37 2 -11 -1 -19 -8 -17 -7 1 -11
-6 -9 -15 2 -10 -2 -18 -8 -18 -6 0 -8 -4 -5 -10 3 -5 2 -10 -3 -10 -9 0 -23
-31 -26 -55 -1 -5 -7 -15 -15 -21 -8 -6 -11 -16 -7 -23 4 -6 0 -14 -8 -17 -9
-3 -14 -10 -11 -14 3 -5 -2 -15 -11 -24 -8 -9 -12 -20 -9 -26 3 -5 2 -10 -3
-10 -16 0 -24 -33 -10 -42 10 -6 8 -8 -4 -8 -10 0 -18 -5 -18 -11 0 -6 -7 -17
-15 -26 -12 -11 -13 -19 -5 -28 8 -10 8 -15 -1 -21 -8 -4 -9 -3 -5 4 4 7 5 12
2 12 -11 0 -45 -83 -39 -93 4 -6 1 -7 -7 -2 -10 6 -12 3 -7 -14 3 -13 3 -20 0
-17 -9 8 -35 -32 -29 -43 3 -5 -1 -12 -10 -15 -8 -3 -13 -10 -10 -14 3 -5 -4
-15 -15 -22 -19 -14 -28 -37 -10 -25 5 3 13 1 16 -5 4 -6 3 -10 -2 -9 -23 4
-43 -2 -38 -11 4 -6 12 -8 18 -4 7 3 1 -4 -13 -16 -14 -12 -20 -19 -13 -16 7
4 6 -4 -3 -24 -9 -16 -12 -34 -9 -40 4 -6 3 -10 -2 -9 -4 1 -15 1 -23 0 -13
-1 -13 -2 0 -11 12 -8 12 -10 -3 -16 -9 -3 -17 -15 -17 -26 0 -12 -7 -26 -15
-32 -8 -6 -16 -23 -19 -38 -7 -40 -25 -69 -39 -62 -9 5 -9 4 -1 -6 9 -9 8 -16
-7 -31 -10 -10 -16 -25 -13 -34 4 -8 1 -15 -5 -15 -6 0 -11 -7 -11 -15 0 -9
-7 -18 -15 -21 -12 -5 -13 -9 -4 -21 7 -8 8 -13 3 -11 -5 2 -9 1 -10 -2 -4
-24 -28 -51 -41 -46 -13 5 -14 4 -4 -8 14 -16 6 -40 -10 -31 -5 3 -6 -1 -3 -9
3 -9 11 -13 18 -9 6 3 7 2 3 -3 -5 -5 -14 -9 -20 -9 -7 0 -13 -9 -15 -20 -2
-11 -6 -27 -9 -35 -3 -8 -5 -19 -4 -24 1 -5 -5 -3 -14 4 -13 11 -15 10 -9 -4
4 -10 1 -16 -7 -16 -12 0 -12 -2 0 -9 11 -7 9 -10 -8 -16 -18 -5 -20 -9 -10
-21 9 -11 9 -14 -1 -14 -7 0 -10 -7 -6 -16 5 -14 4 -15 -8 -5 -13 11 -14 9
-10 -13 3 -19 0 -26 -12 -26 -14 0 -14 -3 -4 -16 11 -12 11 -15 -1 -12 -8 2
-14 -4 -14 -12 0 -8 -7 -22 -15 -30 -9 -8 -14 -23 -12 -32 3 -14 -1 -16 -15
-11 -16 6 -16 5 -4 -10 10 -13 10 -17 1 -17 -7 0 -10 -8 -7 -20 3 -11 0 -23
-5 -27 -7 -3 -8 -1 -4 5 4 7 2 12 -4 12 -6 0 -8 5 -4 12 4 6 3 8 -3 5 -6 -4
-8 -19 -5 -33 3 -19 1 -25 -7 -20 -6 4 -11 2 -11 -3 0 -6 6 -11 13 -11 8 0 7
-3 -3 -9 -8 -6 -17 -8 -21 -5 -4 2 -5 -5 -2 -16 3 -12 -1 -22 -10 -26 -9 -3
-13 -13 -9 -26 4 -17 2 -20 -12 -15 -14 5 -15 3 -6 -13 8 -15 8 -18 -3 -14 -8
3 -17 -2 -21 -11 -3 -9 -2 -13 4 -10 6 3 10 2 10 -4 0 -5 -9 -13 -21 -16 -16
-5 -18 -10 -8 -21 9 -11 9 -14 -1 -14 -7 0 -10 -7 -6 -16 6 -15 4 -15 -10 -3
-16 13 -16 12 -4 -11 12 -22 11 -23 -1 -13 -12 10 -15 7 -17 -13 -3 -33 -11
-46 -24 -38 -6 4 -6 -1 1 -14 9 -17 8 -22 -10 -27 -17 -6 -18 -9 -7 -23 11
-13 10 -15 -9 -10 -12 3 -22 3 -21 -1 3 -25 -4 -51 -12 -46 -6 3 -7 -1 -4 -9
3 -9 11 -13 18 -9 6 3 7 2 3 -3 -5 -5 -14 -9 -20 -9 -7 0 -11 -8 -11 -18 1 -9
-5 -17 -13 -17 -9 0 -13 -6 -9 -15 3 -8 0 -15 -7 -15 -9 0 -8 -3 1 -9 11 -7
10 -9 -3 -14 -9 -4 -15 -12 -14 -19 3 -29 -2 -49 -11 -43 -5 3 -10 -3 -10 -14
0 -10 -6 -21 -12 -24 -10 -3 -10 -8 1 -21 8 -9 10 -16 5 -15 -5 1 -18 1 -29 0
-17 -1 -18 -3 -5 -11 10 -6 11 -10 3 -10 -7 0 -13 -9 -13 -21 0 -13 -4 -18
-12 -13 -9 5 -8 2 1 -9 12 -15 12 -17 -3 -11 -12 5 -15 2 -9 -12 5 -12 3 -15
-6 -9 -10 5 -11 2 -6 -14 4 -15 1 -23 -10 -27 -13 -6 -14 -8 -3 -15 9 -6 10
-9 1 -9 -7 0 -10 -7 -7 -15 4 -10 0 -15 -11 -15 -15 0 -15 -2 -5 -16 11 -12
11 -15 -1 -12 -9 2 -15 -7 -17 -25 -2 -16 -10 -31 -17 -33 -8 -3 -11 -12 -9
-19 3 -7 -5 -21 -18 -30 -13 -10 -16 -15 -7 -12 9 3 16 -1 16 -9 0 -7 -4 -11
-9 -8 -4 3 -8 -2 -8 -10 0 -10 -6 -13 -17 -9 -14 5 -15 3 -6 -7 14 -15 6 -43
-10 -33 -6 4 -7 1 -3 -6 5 -7 1 -20 -9 -31 -12 -14 -13 -20 -4 -26 8 -5 10 -3
4 6 -5 9 -4 11 4 6 8 -6 5 -15 -14 -31 -26 -25 -35 -52 -12 -39 6 4 4 -2 -6
-13 -9 -11 -14 -23 -10 -27 4 -4 -1 -4 -12 0 -18 7 -18 6 -6 -9 10 -13 10 -17
1 -17 -9 0 -9 -4 1 -17 12 -15 12 -16 -3 -10 -12 4 -18 1 -18 -9 0 -8 -4 -13
-8 -10 -5 3 -9 -1 -9 -9 0 -8 5 -11 11 -8 6 4 3 -3 -7 -14 -14 -16 -15 -22 -5
-26 9 -4 7 -6 -4 -6 -9 -1 -20 -6 -24 -13 -5 -7 -3 -8 6 -3 10 6 11 4 5 -11
-4 -10 -8 -27 -9 -36 0 -10 -7 -18 -16 -18 -12 0 -12 -2 -2 -9 11 -7 10 -9 -3
-15 -9 -3 -13 -10 -10 -16 3 -5 1 -10 -6 -10 -8 0 -7 -5 2 -17 12 -15 12 -16
-4 -10 -15 6 -16 4 -6 -15 10 -18 9 -20 -6 -14 -14 5 -16 2 -12 -13 3 -11 -1
-22 -9 -25 -7 -3 -11 -12 -8 -21 4 -8 1 -15 -6 -15 -9 0 -9 -4 1 -17 12 -14
12 -16 0 -8 -11 6 -13 4 -8 -8 4 -11 1 -17 -8 -17 -7 0 -17 -5 -21 -12 -4 -6
-3 -8 3 -5 6 4 13 0 17 -8 3 -8 1 -15 -4 -15 -6 0 -10 -7 -10 -16 0 -8 -4 -13
-8 -10 -5 3 -9 -1 -9 -9 0 -8 4 -12 9 -9 4 3 5 -2 2 -10 -3 -9 -10 -13 -15
-10 -5 3 -6 -2 -3 -10 4 -9 1 -16 -6 -16 -9 0 -9 -4 1 -17 8 -10 9 -14 2 -10
-6 4 -14 3 -18 -3 -3 -5 0 -10 7 -10 8 -1 6 -6 -6 -15 -11 -9 -14 -15 -7 -15
8 0 7 -5 -4 -16 -13 -14 -14 -19 -3 -25 10 -7 8 -9 -6 -9 -14 0 -16 -3 -7 -13
8 -10 6 -19 -8 -34 -15 -16 -17 -23 -8 -33 9 -9 9 -11 1 -7 -7 4 -14 0 -18 -8
-3 -8 0 -15 6 -15 9 0 9 -3 0 -12 -7 -7 -12 -22 -12 -35 0 -13 -4 -23 -9 -23
-4 0 -6 -11 -3 -25 2 -15 0 -25 -7 -25 -7 0 -9 5 -5 12 4 7 3 8 -5 4 -9 -6 -9
-11 1 -23 10 -12 9 -18 -7 -29 -10 -8 -14 -14 -8 -14 8 0 8 -10 0 -35 -6 -19
-14 -35 -19 -35 -5 0 -6 5 -2 12 4 7 3 8 -5 4 -9 -6 -9 -11 0 -22 9 -11 9 -17
0 -28 -9 -11 -9 -15 1 -19 10 -4 10 -6 -1 -6 -11 -1 -11 -4 -1 -16 10 -12 10
-15 -4 -15 -9 0 -16 -4 -16 -10 0 -5 5 -10 12 -10 6 0 3 -7 -8 -15 -14 -11
-16 -15 -4 -15 12 0 10 -4 -4 -15 -11 -8 -14 -15 -8 -15 7 0 12 -5 12 -11 0
-5 -4 -7 -10 -4 -6 4 -8 -6 -6 -24 3 -26 0 -31 -17 -31 -21 0 -21 0 -1 -16 17
-14 17 -15 1 -10 -11 3 -15 2 -12 -4 10 -17 14 -50 6 -50 -9 0 -6 -43 4 -59 3
-6 0 -11 -7 -11 -7 0 -14 -12 -16 -28 -5 -55 -7 -67 -14 -73 -12 -8 -16 -65
-7 -80 4 -8 1 -18 -9 -27 -9 -7 -11 -11 -4 -7 6 3 12 1 12 -4 0 -6 -4 -11 -9
-11 -5 0 -8 -14 -7 -31 1 -16 -2 -33 -6 -35 -5 -3 -4 -12 3 -20 6 -8 7 -14 2
-14 -5 0 -10 -7 -10 -15 0 -8 3 -15 7 -15 3 0 6 -9 6 -20 0 -11 -5 -19 -12
-16 -6 2 -10 -6 -9 -22 1 -15 -2 -35 -7 -44 -6 -12 -5 -18 2 -18 7 0 8 -6 0
-19 -7 -14 -7 -22 0 -26 8 -5 8 -11 1 -19 -6 -7 -8 -16 -4 -20 9 -9 11 -46 3
-46 -9 0 -6 -32 4 -48 4 -7 2 -12 -4 -12 -6 0 -8 -5 -4 -12 11 -17 12 -48 3
-48 -9 0 -7 -20 4 -37 4 -6 3 -14 -3 -18 -6 -4 -7 -12 -3 -18 9 -15 11 -47 3
-47 -9 0 -6 -32 4 -48 4 -7 2 -12 -4 -12 -6 0 -8 -5 -4 -12 11 -17 12 -48 3
-48 -9 0 -6 -26 4 -36 4 -4 2 -13 -4 -21 -7 -8 -8 -13 -1 -13 9 0 23 -48 22
-80 0 -8 0 -23 -1 -32 0 -10 -7 -18 -15 -18 -8 0 -14 8 -15 18 0 14 -2 14 -9
-3 -5 -11 -9 -14 -9 -7 -1 7 -5 10 -11 7 -5 -3 -10 0 -10 7 0 9 -3 9 -10 -2
-8 -13 -10 -12 -10 4 0 15 -3 16 -15 6 -13 -11 -14 -10 -9 4 4 9 3 16 -2 15
-23 -4 -45 2 -39 11 3 6 -5 10 -19 10 -14 0 -30 8 -35 18 -6 9 -11 11 -11 5 0
-9 -6 -7 -18 5 -11 9 -17 21 -14 26 3 5 0 6 -7 2 -6 -4 -8 -13 -4 -19 3 -7 -3
-4 -15 7 -12 10 -19 24 -16 30 3 6 -2 2 -10 -8 -9 -11 -17 -17 -17 -13 -1 4
-2 11 -3 16 -2 15 -16 25 -16 12 0 -7 -5 -9 -10 -6 -6 4 -8 10 -5 15 3 5 -6 7
-19 4 -17 -3 -28 2 -35 13 -6 10 -11 12 -11 6 0 -8 -8 -5 -20 7 -20 20 -45 26
-53 13 -2 -5 -2 -2 0 5 2 8 -6 16 -17 19 -11 3 -20 9 -20 14 0 5 -7 9 -16 9
-9 0 -23 8 -30 18 -13 16 -14 16 -8 -3 5 -15 2 -14 -12 6 -11 14 -25 24 -33
21 -8 -2 -11 0 -8 5 3 5 0 10 -8 11 -8 1 -22 3 -30 4 -8 1 -12 5 -9 10 3 4 -4
8 -15 8 -12 0 -20 3 -20 8 3 19 -3 22 -22 11 -15 -8 -19 -8 -15 0 4 6 -1 14
-11 17 -41 13 -63 28 -64 43 0 12 -3 11 -9 -4 -8 -18 -9 -18 -9 -2 -1 11 -5
15 -13 11 -7 -5 -9 -2 -5 9 4 12 2 14 -9 10 -10 -4 -25 4 -39 21 -23 27 -41
35 -30 14 4 -7 0 -5 -9 6 -8 10 -19 15 -25 11 -6 -3 -11 2 -11 12 0 15 -2 16
-10 3 -8 -13 -10 -12 -10 4 0 16 -2 17 -17 5 -9 -8 -14 -9 -10 -3 4 7 -1 18
-10 25 -11 10 -14 10 -9 2 5 -9 2 -11 -9 -7 -9 4 -14 12 -11 19 3 9 -3 11 -17
8 -18 -4 -20 -3 -7 7 13 10 11 11 -7 7 -12 -3 -22 -2 -21 2 2 19 -3 30 -14 26
-7 -3 -24 5 -38 16 -14 11 -19 17 -11 13 10 -5 12 -3 7 5 -6 9 -11 9 -24 -1
-10 -8 -13 -9 -9 -1 4 7 -1 14 -12 18 -19 6 -47 27 -90 67 -14 13 -19 16 -13
7 9 -12 9 -16 -3 -16 -7 0 -14 3 -13 6 2 23 -4 38 -17 38 -12 0 -12 -3 -3 -16
8 -10 4 -9 -9 3 -13 10 -20 23 -16 29 4 6 -2 8 -14 5 -15 -4 -25 1 -34 18 -7
13 -20 23 -28 22 -9 -2 -15 3 -14 10 3 12 -9 16 -37 12 -10 -1 -9 3 5 14 20
15 20 15 -2 10 -15 -4 -25 0 -32 15 -7 12 -18 21 -26 21 -8 0 -15 5 -15 11 0
5 -5 7 -12 3 -6 -4 -8 -3 -5 3 4 6 -1 17 -10 24 -11 10 -14 10 -9 2 5 -9 2
-11 -8 -7 -9 3 -14 11 -13 16 1 6 -4 13 -12 16 -9 3 -11 0 -7 -9 4 -8 1 -6 -7
3 -8 10 -17 15 -20 11 -4 -3 -4 4 -2 16 3 19 1 21 -18 15 -20 -6 -21 -5 -7 11
8 11 10 16 3 12 -6 -4 -13 -2 -15 3 -2 6 -14 12 -26 13 -13 1 -31 10 -40 21
-16 20 -16 20 1 7 13 -10 21 -11 28 -4 8 8 6 11 -7 10 -11 -1 -18 4 -16 11 1
8 -2 11 -7 8 -13 -8 -42 4 -35 15 3 5 0 9 -6 9 -6 0 -8 5 -4 12 5 8 2 9 -10 5
-14 -5 -17 -3 -13 8 4 8 1 17 -5 21 -7 4 -8 3 -4 -4 4 -7 2 -12 -3 -12 -6 0
-11 5 -11 11 0 5 -4 7 -10 4 -6 -3 -10 1 -10 9 0 8 -5 18 -12 22 -7 4 -8 3 -4
-4 4 -7 3 -12 -2 -12 -11 0 -26 30 -23 43 1 5 -8 6 -19 2 -14 -4 -20 -2 -20 9
0 10 6 13 18 9 11 -4 10 0 -6 11 -12 10 -27 14 -34 10 -7 -4 -8 -3 -4 4 4 7 2
12 -3 12 -6 0 -11 10 -12 23 -1 21 -1 21 -9 -3 l-8 -25 -1 27 c-1 18 -5 26
-14 22 -7 -2 -22 6 -33 18 l-19 23 21 -18 c17 -14 21 -14 21 -2 0 8 -4 12 -8
9 -4 -2 -12 4 -18 13 -5 10 -12 17 -15 16 -15 -7 -25 -1 -31 17 -4 11 -11 17
-17 14 -7 -5 -9 2 -4 22 7 28 7 28 -9 9 -16 -20 -16 -20 -12 2 3 12 2 22 -2
21 -14 -4 -51 14 -51 25 0 8 3 8 12 -1 23 -23 27 -12 5 11 -12 13 -25 22 -28
20 -4 -1 -10 4 -13 13 -4 10 -2 13 7 9 6 -4 3 0 -7 9 -10 8 -22 13 -26 11 -4
-3 -13 2 -20 10 -11 13 -10 14 6 8 16 -6 17 -5 4 9 -8 9 -18 14 -22 11 -5 -2
-8 1 -8 7 0 6 -4 9 -9 6 -5 -3 -11 1 -14 9 -4 10 -1 12 11 8 13 -4 12 -2 -3
10 -11 8 -23 13 -26 11 -4 -2 -5 6 -2 18 4 19 3 20 -6 8 -10 -13 -11 -13 -12
0 -1 8 -1 18 0 22 0 5 -2 7 -7 6 -13 -3 -42 14 -42 25 0 7 4 7 12 -1 7 -7 16
-12 20 -12 4 0 -1 9 -12 20 -11 11 -25 18 -32 16 -7 -1 -10 -1 -5 1 13 8 8 23
-8 23 -8 0 -17 11 -21 24 -3 14 -12 27 -20 30 -8 3 -14 10 -14 16 0 6 6 8 13
4 6 -3 -5 10 -25 30 -20 20 -41 36 -47 36 -6 0 -11 8 -11 18 0 14 2 15 10 2 8
-13 10 -12 10 3 0 9 -4 18 -10 18 -5 1 -16 2 -22 3 -8 1 -12 12 -10 26 2 21 1
22 -8 10 -10 -12 -11 -11 -7 8 3 12 1 20 -4 16 -5 -3 -9 0 -9 6 0 6 -4 9 -9 6
-4 -3 -6 7 -4 22 4 21 2 24 -6 12 -9 -12 -11 -11 -11 8 0 15 -4 21 -12 16 -6
-4 -8 -3 -4 4 3 6 -1 17 -10 26 -8 9 -16 25 -17 35 0 11 -5 17 -9 15 -4 -3 -8
6 -8 20 0 14 -5 26 -10 26 -6 0 -20 9 -31 19 -15 14 -17 21 -8 26 8 6 10 4 4
-5 -6 -9 -4 -11 5 -5 10 6 6 14 -15 33 -29 24 -45 59 -22 45 8 -5 8 -2 0 9 -7
8 -10 17 -7 20 3 3 -9 16 -26 28 -24 17 -28 25 -20 35 9 11 6 17 -13 30 -17
11 -23 22 -20 36 3 11 -1 27 -10 37 -8 9 -13 25 -12 34 2 10 -2 16 -8 15 -7
-1 -11 6 -9 16 2 9 -2 17 -8 17 -5 0 -10 10 -10 21 0 12 -10 30 -22 40 -18 16
-18 19 -4 19 15 0 14 3 -4 22 -11 12 -18 28 -16 35 3 7 1 13 -4 13 -6 0 -9 3
-9 8 5 27 -2 44 -16 38 -13 -4 -14 -2 -5 14 8 14 8 20 0 20 -6 0 -8 5 -5 10 3
6 2 10 -3 10 -5 0 -9 6 -10 13 -2 22 -7 42 -15 55 -5 7 -3 12 5 12 7 0 5 5 -6
11 -15 9 -16 13 -5 20 11 7 11 9 1 9 -7 0 -10 5 -7 10 3 6 1 10 -6 10 -7 0 -9
3 -6 7 4 3 1 13 -6 21 -10 13 -9 14 3 7 12 -7 11 -3 -2 18 -10 14 -18 35 -18
47 0 11 -5 20 -10 20 -7 0 -7 6 0 19 7 14 7 22 -2 27 -7 5 -8 3 -3 -6 5 -9 4
-11 -3 -6 -9 5 -9 13 -2 27 8 15 8 19 -2 17 -7 -2 -12 3 -11 9 2 7 -5 13 -15
14 -14 0 -14 2 3 9 11 5 14 9 7 9 -7 1 -10 5 -7 11 3 5 1 10 -5 10 -7 0 -8 6
-1 19 8 14 7 22 -4 31 -8 7 -12 16 -9 21 3 5 -1 9 -8 9 -10 0 -10 2 1 9 9 6
10 10 2 16 -9 5 -9 10 0 21 9 11 9 14 0 14 -7 0 -9 4 -6 10 3 6 1 10 -6 10 -8
0 -7 5 2 17 10 11 10 14 1 9 -11 -7 -16 15 -15 62 1 6 -3 12 -7 12 -5 0 -7 11
-5 25 1 14 -2 28 -7 31 -5 3 -4 11 2 19 8 9 6 14 -7 19 -15 6 -15 8 -3 16 12
8 12 10 1 10 -9 0 -12 11 -9 40 2 22 0 40 -5 40 -5 0 -6 7 -3 16 4 9 1 24 -6
32 -11 13 -11 14 2 7 13 -8 13 -7 1 8 -7 9 -10 17 -6 17 4 0 2 6 -4 14 -8 10
-9 16 -1 21 6 3 7 12 3 18 -11 18 -12 37 -2 37 6 0 5 8 -1 20 -6 11 -7 20 -1
20 10 0 10 32 -1 40 -3 3 -8 14 -10 25 -1 11 -7 23 -12 26 -4 4 -3 16 3 28 9
16 9 21 -1 21 -7 0 -8 3 -2 9 5 6 7 46 4 91 -3 45 -1 85 4 91 6 6 5 9 -4 9 -9
0 -10 3 -4 9 5 6 7 46 4 91 -3 45 -1 85 4 91 6 6 5 9 -3 9 -10 0 -11 3 -3 13
7 8 7 18 2 27 -5 9 -5 19 2 27 7 9 7 13 -1 13 -7 0 -9 5 -5 12 11 17 11 58 1
58 -5 0 -2 12 8 26 9 15 12 23 6 20 -6 -4 -11 -2 -11 3 0 6 7 11 16 11 13 0
14 3 5 14 -9 10 -9 16 -1 21 7 4 8 11 1 18 -12 15 -12 29 0 44 7 7 6 14 -1 18
-6 4 -7 12 0 24 6 12 5 22 -2 29 -9 9 -9 12 0 12 7 0 12 10 12 23 0 12 4 29
10 37 5 8 6 17 2 20 -10 7 7 112 17 106 4 -3 6 5 5 17 -1 12 -3 22 -4 22 -1 0
-3 8 -5 17 -2 10 4 22 13 28 11 6 12 10 4 10 -10 0 -10 5 -2 20 6 11 8 25 5
30 -4 6 1 13 10 16 13 6 14 8 3 15 -9 6 -10 9 -1 9 7 0 10 7 7 15 -4 8 -1 15
5 15 8 0 9 5 3 16 -11 19 -4 54 10 54 5 0 6 -5 2 -12 -4 -7 -3 -8 5 -4 6 4 8
13 4 19 -10 17 -11 47 -1 53 4 3 8 13 8 23 0 10 7 24 15 31 12 10 13 16 4 26
-9 11 -8 14 1 14 7 0 10 7 6 16 -3 9 -2 12 5 8 7 -4 9 2 7 17 -2 13 4 29 12
36 11 9 12 12 2 13 -7 0 -10 5 -7 10 4 6 12 7 18 3 7 -4 6 0 -2 10 -11 14 -11
17 0 17 11 0 11 2 -1 10 -13 8 -13 10 2 10 12 0 15 5 11 17 -5 11 -3 14 6 8
10 -6 11 -3 2 13 -9 17 -8 22 10 27 17 6 18 9 7 23 -7 9 -8 13 -2 9 7 -4 14 0
17 7 3 8 1 17 -6 20 -7 2 -5 5 5 5 9 1 20 6 24 13 5 7 3 8 -6 3 -8 -5 -11 -3
-8 6 3 8 11 13 18 11 11 -3 11 0 0 12 -9 12 -10 16 0 16 7 0 10 7 6 16 -5 13
-4 14 7 5 12 -9 14 -5 12 23 -1 19 2 33 7 30 4 -3 8 4 8 15 0 11 9 26 21 35
20 13 20 14 2 19 -16 4 -16 5 0 6 15 1 22 12 18 34 0 4 3 7 8 7 6 0 8 9 6 19
-3 15 1 18 12 14 13 -5 15 -1 11 20 -5 24 -3 25 10 15 13 -10 14 -10 8 0 -4 6
-3 12 3 12 6 0 8 6 5 14 -3 8 4 21 16 29 15 11 18 16 8 20 -9 4 -7 6 4 6 10 1
17 7 15 13 -1 7 4 12 12 10 8 -2 11 3 8 13 -4 8 -2 15 3 15 5 0 7 9 5 20 -3
17 -1 19 16 10 10 -6 18 -7 17 -3 -5 18 14 53 28 53 9 0 14 8 13 17 -3 32 1
36 17 22 15 -12 16 -11 9 10 -5 16 -4 21 4 17 10 -6 15 6 12 26 0 4 7 4 16 1
12 -5 15 -2 10 10 -6 15 -4 16 14 6 15 -8 19 -8 15 0 -4 6 -1 11 6 11 9 0 9 3
-2 10 -10 7 -11 10 -2 11 6 1 17 2 22 3 6 0 10 5 9 11 0 5 9 13 21 17 11 4 20
14 18 22 -4 18 42 58 58 52 8 -3 11 4 9 19 -1 13 1 24 4 23 3 0 17 0 31 1 20
1 22 3 10 11 -12 8 -10 10 10 10 27 0 63 33 52 47 -4 4 0 3 7 -4 11 -10 17 -9
27 5 11 14 15 14 22 4 7 -11 10 -10 15 3 5 10 3 14 -5 9 -7 -4 -8 -3 -4 4 4 7
18 12 32 12 13 0 24 6 24 13 0 8 7 14 15 14 12 0 12 -3 3 -16 -7 -9 2 -3 19
12 22 21 33 25 38 16 6 -8 4 -10 -5 -4 -9 5 -11 4 -6 -4 10 -15 26 -5 27 17 0
11 2 13 6 4 4 -10 8 -10 19 -1 7 6 19 9 26 7 7 -3 19 2 27 9 11 12 15 12 22 1
7 -11 9 -11 9 1 0 10 3 11 14 2 10 -8 16 -9 21 -1 3 6 12 7 18 3 17 -10 47
-11 47 -1 0 5 9 4 20 -2 11 -6 20 -7 20 -2 0 10 30 9 48 -2 7 -4 12 -2 12 4 0
8 6 8 20 0 15 -8 20 -8 20 2 0 10 2 10 9 -1 5 -8 18 -12 31 -8 13 3 23 0 27
-9 3 -8 9 -11 14 -8 5 3 9 -2 9 -10 0 -9 3 -15 8 -14 11 2 69 -26 71 -34 0 -5
1 -13 1 -19 0 -5 5 -7 10 -4 6 3 10 -2 10 -12 1 -23 25 -55 35 -45 5 4 5 -1 2
-10 -4 -12 -2 -15 9 -11 14 5 21 -22 7 -30 -5 -2 -3 -2 4 -1 14 3 20 -13 19
-48 -1 -19 2 -24 10 -17 8 6 14 4 18 -6 4 -11 2 -14 -7 -9 -9 6 -9 5 0 -8 7
-8 10 -18 6 -21 -3 -4 -2 -7 3 -7 5 0 11 -10 11 -22 1 -13 7 -24 13 -26 8 -3
8 -8 0 -17 -8 -9 -8 -15 0 -20 5 -3 10 -17 10 -30 0 -13 6 -25 13 -28 8 -3 9
-8 2 -16 -7 -6 -8 -35 -5 -71 3 -35 2 -64 -4 -70 -7 -7 -6 -10 2 -10 9 0 10
-6 4 -17 -10 -21 10 -88 22 -76 5 5 3 -2 -3 -15 -9 -16 -9 -22 0 -22 8 0 8 -4
-1 -15 -10 -12 -10 -15 0 -15 10 0 10 -3 0 -15 -9 -11 -9 -15 -1 -15 9 0 9 -5
0 -21 -9 -17 -8 -20 2 -14 9 6 11 3 6 -8 -3 -10 -3 -17 2 -17 7 0 19 -87 24
-172 1 -16 6 -28 10 -28 5 0 5 -5 1 -12 -5 -7 -2 -9 9 -5 11 4 14 2 10 -8 -3
-8 -10 -12 -17 -8 -6 4 -5 0 2 -9 8 -9 12 -25 11 -35 -2 -10 3 -28 10 -41 7
-13 10 -30 7 -38 -3 -8 -1 -14 5 -14 6 0 8 -7 5 -15 -3 -9 1 -18 10 -22 8 -3
13 -12 10 -19 -3 -8 -1 -14 5 -14 6 0 7 -5 4 -10 -3 -5 -2 -10 4 -10 5 0 8 -9
6 -20 -2 -11 1 -23 7 -26 7 -5 8 -2 3 6 -5 9 -4 11 3 6 8 -5 9 -13 3 -24 -10
-18 10 -58 22 -45 4 3 7 -6 7 -21 0 -15 7 -29 15 -32 10 -4 12 -10 6 -18 -6
-7 -1 -21 16 -41 14 -16 22 -23 17 -15 -4 8 -3 11 1 7 12 -10 16 -39 5 -32 -5
3 -12 0 -16 -7 -4 -7 -4 -10 1 -6 4 4 17 2 29 -4 20 -11 20 -11 1 -19 -20 -8
-20 -8 0 -9 11 -2 25 -1 30 0 6 1 7 -2 3 -5 -4 -4 -2 -17 4 -29 7 -11 13 -23
13 -26 1 -12 24 -44 25 -35 0 6 -3 15 -7 21 -5 5 0 1 10 -10 14 -15 15 -21 5
-27 -10 -7 -8 -9 5 -9 24 0 45 -21 39 -39 -3 -8 0 -11 7 -7 6 4 11 2 11 -4 0
-6 5 -8 10 -5 6 3 10 -1 10 -9 0 -9 5 -16 11 -16 5 0 7 -5 3 -12 -5 -8 -2 -9
10 -5 11 5 15 3 10 -5 -5 -8 -2 -9 11 -4 15 5 16 4 5 -9 -9 -11 -9 -15 -1 -15
7 0 9 -4 6 -10 -3 -6 1 -7 9 -4 9 3 16 1 16 -5 0 -6 9 -11 20 -11 18 0 22 -6
19 -26 -2 -13 26 -23 46 -17 18 5 19 4 5 -13 -8 -10 -11 -16 -6 -12 9 8 60
-15 86 -37 15 -13 19 -15 41 -15 5 0 7 -6 3 -13 -5 -7 0 -6 11 3 11 9 16 10
11 3 -5 -9 0 -13 18 -13 14 0 28 -5 32 -12 5 -7 3 -8 -6 -3 -8 5 -11 4 -6 -3
3 -6 15 -9 26 -7 11 2 20 -1 20 -6 0 -6 4 -8 8 -5 5 3 21 -2 36 -10 16 -7 38
-14 50 -14 11 0 34 -7 49 -15 15 -8 25 -10 22 -5 -4 6 -1 10 4 10 6 0 11 -5
11 -11 0 -5 5 -7 10 -4 6 3 10 0 10 -7 0 -10 2 -10 9 1 6 9 10 10 16 2 5 -9
10 -9 20 -1 9 8 15 8 20 0 4 -7 12 -7 26 0 10 6 19 7 19 3 0 -4 14 -8 30 -8
17 0 30 4 30 8 0 4 9 3 20 -3 14 -8 20 -8 20 0 0 8 6 8 20 0 14 -8 20 -8 20 0
0 8 6 8 20 0 14 -8 20 -8 20 0 0 8 6 8 20 0 14 -8 20 -8 20 0 0 8 6 8 20 0 14
-8 20 -8 20 0 0 8 6 8 20 0 14 -8 20 -8 20 0 0 8 6 8 20 0 11 -6 20 -7 20 -2
0 10 42 8 59 -2 5 -4 12 -2 16 4 4 6 11 8 16 5 5 -3 6 0 3 8 -3 8 2 14 11 14
8 0 15 -5 15 -11 0 -6 7 -3 14 7 11 14 15 15 19 5 4 -11 6 -11 6 0 1 7 6 10
11 7 6 -3 10 -1 10 5 0 6 4 8 10 5 6 -3 10 0 10 7 0 11 2 10 9 0 7 -11 9 -10
15 3 3 10 13 14 23 11 10 -3 25 -1 33 5 13 9 12 10 -3 5 -10 -3 -15 -2 -12 4
3 5 21 12 40 16 19 3 32 10 29 15 -3 5 4 9 16 9 12 0 19 4 16 9 -9 14 20 21
33 8 9 -9 11 -8 6 5 -10 25 3 42 21 27 12 -10 15 -10 12 1 -2 8 6 16 17 18 11
2 25 9 30 14 7 8 6 9 -2 4 -6 -3 -15 -2 -18 4 -4 6 -3 10 2 9 20 -3 34 2 28
11 -3 6 1 10 10 10 10 0 13 -5 9 -12 -4 -7 -3 -8 4 -4 7 4 12 13 12 21 0 8 5
17 12 21 6 4 8 3 4 -4 -3 -6 -2 -13 3 -16 5 -4 8 5 6 19 -2 21 1 24 18 19 13
-4 17 -2 13 5 -6 9 5 15 25 13 3 -1 6 6 6 13 0 12 -3 12 -16 2 -14 -11 -14
-10 -2 6 8 10 20 16 27 13 7 -3 16 -1 19 4 4 6 1 10 -5 10 -6 0 -9 4 -5 9 3 6
15 8 26 6 17 -4 19 -2 9 10 -10 12 -9 15 4 15 9 0 16 7 16 15 0 8 4 15 10 15
5 0 7 -8 4 -18 -5 -14 -4 -14 4 -2 8 10 7 18 0 28 -9 10 -8 12 3 10 8 -2 15 7
17 20 2 12 8 22 13 22 6 0 7 -6 3 -12 -4 -8 -3 -9 2 -5 5 5 9 16 9 25 0 9 6
16 14 14 12 -3 12 0 2 12 -10 12 -8 17 11 26 22 11 22 10 4 -4 -11 -9 -15 -16
-10 -16 17 0 33 22 27 38 -4 10 -2 13 5 8 8 -5 10 -1 5 10 -5 13 -3 16 10 11
12 -4 14 -2 10 10 -4 10 3 23 18 35 13 11 19 17 12 14 -13 -7 -12 19 2 31 4 4
5 2 1 -5 -4 -6 -3 -12 2 -12 12 0 24 29 16 41 -3 5 0 9 6 9 6 0 8 5 5 10 -3 6
0 13 9 16 8 3 12 12 9 20 -3 8 -1 14 5 14 9 0 23 30 26 55 1 6 4 12 8 15 12 9
47 108 41 114 -4 3 -1 6 6 6 7 0 9 5 6 10 -3 5 0 10 7 10 9 0 9 3 -2 10 -9 6
-10 10 -3 10 11 0 35 58 38 90 0 9 4 21 9 28 4 6 4 12 0 12 -3 0 -2 6 4 13 10
12 22 71 25 129 1 14 5 24 10 21 4 -2 6 7 3 21 -3 14 -1 28 4 31 10 6 9 0 16
155 3 63 7 129 11 145 6 35 5 225 -2 272 -5 32 -17 157 -18 181 0 6 -3 12 -7
12 -3 0 -6 12 -7 28 -2 37 -8 76 -22 144 -7 32 -11 59 -9 61 2 2 -3 11 -10 20
-8 9 -11 21 -7 27 3 5 1 10 -5 10 -6 0 -9 4 -6 8 8 13 -15 92 -27 92 -6 0 -7
3 -4 7 4 3 1 13 -6 21 -10 13 -9 14 1 8 10 -6 9 0 -2 23 -9 17 -14 31 -11 31
4 0 -1 10 -9 21 -8 12 -12 28 -9 37 4 8 2 13 -3 10 -5 -4 -10 6 -11 20 0 15
-6 28 -12 30 -6 2 -9 8 -5 13 3 5 0 9 -5 9 -6 0 -10 3 -10 8 5 27 -2 52 -13
46 -7 -5 -8 -3 -4 5 5 7 0 18 -10 26 -15 11 -16 15 -4 15 10 1 9 4 -5 10 -11
5 -14 9 -7 9 9 1 8 9 -5 34 -9 17 -16 35 -15 40 1 4 -3 7 -8 7 -5 0 -9 3 -9 8
3 19 -2 33 -11 27 -6 -4 -7 1 -3 11 4 10 2 15 -3 11 -6 -3 -11 4 -11 15 -1 11
-12 32 -25 46 -13 14 -17 22 -11 18 9 -5 11 -2 7 8 -3 8 -12 17 -20 20 -9 3
-12 10 -9 16 4 6 -6 32 -22 58 -16 26 -35 59 -42 74 -8 15 -18 25 -22 22 -5
-3 -6 1 -4 9 3 7 -3 22 -15 32 -11 10 -20 24 -20 32 0 7 -4 13 -10 13 -5 0
-10 7 -10 15 0 8 -4 15 -10 15 -5 0 -10 6 -10 14 0 8 -9 21 -20 29 -11 8 -17
17 -13 20 3 4 1 7 -6 7 -7 0 -9 4 -6 10 3 6 -1 10 -10 10 -9 0 -14 4 -11 8 3
5 -6 20 -19 34 -13 14 -21 29 -18 32 4 3 -1 6 -11 6 -9 0 -14 5 -11 10 3 6 -1
10 -10 10 -9 0 -13 4 -10 10 8 12 -40 61 -51 52 -4 -4 -4 -2 -1 4 8 14 -51 81
-85 98 -13 7 -22 20 -21 30 0 11 -4 15 -14 12 -8 -3 -12 -2 -9 2 2 4 1 14 -5
22 -7 12 -9 11 -10 -5 0 -16 -3 -14 -11 8 -5 15 -14 25 -19 21 -5 -3 -9 2 -9
11 0 8 -7 18 -15 21 -8 4 -12 10 -9 15 3 5 -1 6 -9 3 -8 -3 -18 0 -23 7 -5 8
-3 10 6 4 9 -5 11 -4 6 3 -4 7 -17 13 -29 13 -20 1 -20 2 -2 6 17 5 14 8 -15
22 -19 9 -40 27 -47 41 -7 14 -13 21 -13 17 0 -4 -11 4 -24 18 -14 15 -29 24
-34 21 -6 -3 -12 4 -15 15 -4 15 -11 20 -22 15 -9 -3 -14 -2 -10 3 7 12 -52
54 -65 46 -6 -4 -7 1 -3 11 5 13 3 16 -10 11 -11 -4 -22 2 -33 18 -9 14 -22
25 -28 25 -7 0 -22 9 -33 19 -12 11 -24 17 -27 14 -3 -4 -6 -1 -6 6 0 7 -13
17 -30 22 -16 6 -30 15 -30 21 0 5 -4 6 -10 3 -5 -3 -10 -1 -10 5 0 7 -7 10
-15 7 -8 -4 -17 -1 -21 5 -5 7 -2 8 6 3 9 -6 11 -4 5 4 -4 7 -16 11 -26 8 -10
-3 -17 0 -16 7 1 6 -4 10 -10 9 -7 -2 -13 2 -13 9 0 6 -3 8 -7 5 -3 -4 -11 0
-17 8 -6 7 -18 15 -26 17 -8 2 -21 9 -28 16 -12 10 -17 10 -30 0 -12 -10 -14
-10 -8 0 5 8 -3 16 -21 24 -15 6 -31 11 -35 10 -5 -1 -8 3 -8 9 0 6 -7 9 -15
5 -8 -3 -15 -1 -15 4 0 5 -12 13 -27 16 -16 4 -31 11 -34 17 -4 5 -20 10 -37
10 -17 1 -28 5 -26 8 2 4 -6 10 -19 14 -12 4 -24 8 -27 10 -3 1 -13 5 -22 9
-9 4 -23 9 -32 10 -8 1 -18 5 -22 8 -3 4 -12 4 -20 1 -8 -3 -14 -1 -14 5 0 5
-15 13 -32 17 -18 4 -40 9 -48 12 -8 2 -19 5 -25 6 -5 1 -16 6 -22 10 -7 5
-13 6 -13 3 0 -3 -12 -1 -27 5 -34 13 -60 19 -94 23 -14 2 -31 6 -38 11 -8 4
-17 2 -21 -5 -6 -10 -8 -10 -12 0 -2 8 -11 15 -19 16 -7 2 -25 5 -39 8 -14 4
-41 8 -60 11 -19 3 -46 7 -60 10 -14 3 -56 8 -93 10 -38 3 -73 7 -78 10 -5 4
-9 0 -9 -7 0 -10 -2 -10 -9 1 -7 11 -54 14 -248 15 -131 1 -258 -2 -283 -7
-25 -4 -79 -9 -120 -12 -41 -2 -86 -6 -100 -10 -14 -3 -37 -6 -52 -7 -16 -1
-28 -4 -28 -7 0 -3 -18 -7 -40 -8 -22 -2 -50 -5 -63 -7 -83 -15 -97 -19 -97
-26 0 -5 -9 -6 -20 -3 -11 3 -20 1 -20 -3 0 -5 -13 -9 -29 -10 -16 -1 -37 -5
-47 -9 -11 -4 -26 -9 -34 -10 -41 -5 -120 -30 -120 -37 0 -5 -4 -7 -9 -4 -12
8 -42 -4 -36 -14 3 -5 -4 -6 -15 -3 -12 3 -20 0 -20 -6 0 -7 -4 -9 -10 -6 -5
3 -19 1 -30 -5 -12 -6 -29 -13 -38 -15 -37 -7 -158 -59 -168 -72 -10 -11 -13
-11 -17 -1 -4 11 -6 11 -6 0 -1 -7 -5 -11 -10 -7 -5 3 -17 -2 -25 -11 -9 -8
-16 -12 -16 -8 0 5 -5 3 -12 -4 -7 -7 -20 -12 -30 -12 -10 0 -18 -5 -18 -11 0
-5 -4 -7 -10 -4 -5 3 -10 1 -10 -5 0 -6 -4 -8 -10 -5 -6 3 -10 1 -10 -4 0 -6
-9 -11 -19 -11 -10 0 -22 -7 -25 -16 -3 -8 -10 -12 -16 -9 -13 8 -52 -19 -42
-30 4 -5 1 -5 -6 -1 -15 9 -93 -34 -85 -47 4 -6 1 -7 -7 -2 -7 4 -15 4 -19 -1
-3 -5 -23 -17 -44 -27 -24 -10 -35 -22 -31 -29 4 -7 3 -8 -5 -4 -14 9 -63 -28
-53 -39 4 -5 2 -5 -5 -1 -12 7 -53 -14 -81 -41 -7 -7 -18 -13 -23 -13 -6 0 -7
-5 -3 -12 5 -8 2 -9 -9 -5 -10 3 -17 3 -17 -2 0 -4 -12 -13 -26 -19 -15 -7
-22 -17 -18 -24 4 -6 3 -9 -2 -6 -13 8 -100 -57 -96 -72 1 -6 -2 -9 -8 -5 -5
3 -20 -4 -33 -17 -13 -13 -27 -25 -32 -28 -6 -3 -9 -9 -7 -13 1 -5 -2 -6 -7
-3 -12 8 -33 -18 -23 -29 4 -5 1 -5 -5 -1 -7 4 -13 2 -13 -4 0 -6 -3 -9 -8 -7
-4 3 -13 -1 -20 -9 -7 -8 -9 -14 -5 -14 4 0 0 -5 -10 -11 -9 -6 -15 -14 -12
-20 3 -5 -1 -6 -9 -3 -14 6 -21 -5 -17 -28 0 -4 -6 -5 -15 -1 -10 4 -17 -2
-21 -16 -3 -11 -9 -18 -14 -15 -5 3 -9 0 -9 -6 0 -6 -4 -9 -9 -5 -5 3 -13 0
-17 -6 -4 -8 -3 -9 4 -5 7 4 12 2 12 -3 0 -6 -7 -11 -16 -11 -9 0 -12 -5 -8
-12 5 -8 2 -9 -11 -4 -16 6 -16 4 -4 -11 7 -10 10 -15 5 -11 -14 12 -48 -12
-42 -28 4 -9 2 -12 -5 -8 -6 3 -19 -3 -30 -15 -11 -12 -16 -21 -12 -21 4 0 -9
-11 -30 -25 -20 -14 -37 -28 -37 -32 0 -3 8 1 17 8 10 7 -4 -8 -30 -34 -26
-26 -45 -52 -42 -58 4 -5 1 -8 -7 -7 -7 2 -12 -5 -12 -14 1 -10 -1 -17 -5 -16
-19 2 -31 -4 -31 -16 0 -8 -7 -17 -16 -20 -9 -4 -14 -9 -11 -12 3 -3 -6 -17
-20 -30 -14 -13 -22 -28 -17 -35 4 -8 3 -9 -4 -5 -7 4 -12 0 -12 -10 0 -10 -3
-14 -7 -11 -10 10 -35 -31 -27 -45 4 -6 3 -9 -2 -6 -5 3 -20 -9 -34 -26 -13
-17 -18 -26 -9 -21 8 6 6 2 -4 -7 -11 -10 -15 -18 -11 -18 5 0 1 -5 -9 -11 -9
-6 -15 -14 -12 -20 4 -5 -1 -12 -9 -15 -9 -3 -16 -11 -16 -16 0 -6 -8 -17 -17
-25 -12 -10 -13 -12 -3 -8 10 4 9 2 -2 -8 -10 -8 -18 -19 -18 -26 0 -6 -4 -11
-10 -11 -5 0 -6 -7 -3 -17 4 -9 2 -14 -3 -10 -5 3 -21 -15 -34 -41 -13 -26
-32 -58 -42 -71 -10 -13 -16 -27 -13 -31 3 -4 -2 -11 -11 -14 -9 -3 -14 -13
-11 -20 3 -8 0 -17 -8 -19 -7 -3 -16 -19 -20 -36 -4 -17 -11 -31 -17 -31 -6 0
-8 -9 -5 -20 3 -11 2 -18 -2 -15 -8 4 -74 -122 -74 -142 0 -7 -4 -13 -8 -13
-4 0 -6 -9 -4 -20 2 -11 0 -18 -6 -15 -5 4 -10 0 -11 -7 0 -7 -2 -17 -2 -23
-1 -5 -10 -22 -20 -37 -10 -16 -16 -35 -12 -43 3 -9 2 -13 -4 -10 -9 5 -15
-15 -11 -37 0 -5 -3 -8 -9 -8 -7 0 -29 -56 -34 -90 -1 -3 -5 -11 -9 -17 -5 -7
-5 -17 -2 -23 3 -5 1 -10 -5 -10 -7 0 -10 -6 -7 -14 3 -8 1 -16 -5 -18 -6 -2
-11 -18 -12 -35 0 -17 -4 -29 -7 -27 -4 2 -10 -11 -14 -29 -9 -37 -8 -35 -29
-101 -8 -27 -13 -53 -10 -58 3 -4 1 -8 -4 -8 -9 0 -28 -74 -36 -136 -1 -11 -6
-25 -10 -32 -4 -7 -5 -12 -2 -12 3 0 1 -11 -4 -26 -12 -30 -21 -76 -26 -124
-1 -19 -3 -35 -4 -35 -3 0 -12 -42 -15 -70 -1 -16 -4 -30 -5 -30 -3 0 -8 -28
-14 -85 -3 -25 -9 -65 -12 -90 -4 -25 -8 -61 -9 -80 0 -20 -4 -41 -8 -47 -4
-6 -2 -15 4 -19 8 -5 8 -8 -1 -14 -7 -4 -13 -45 -15 -109 -3 -56 -7 -106 -10
-111 -3 -5 -1 -12 5 -15 8 -5 7 -11 -1 -21 -9 -11 -9 -14 0 -14 7 0 9 -5 5
-11 -17 -29 -23 -317 -10 -534 4 -60 9 -155 11 -210 2 -55 6 -116 9 -135 5
-35 16 -154 19 -197 0 -13 4 -23 7 -23 3 0 6 -19 7 -43 2 -65 6 -97 13 -97 3
0 6 -17 6 -38 0 -20 3 -53 7 -72 4 -19 9 -57 12 -84 3 -28 8 -59 12 -70 8 -25
10 -33 11 -69 1 -19 6 -26 14 -21 7 4 8 3 4 -5 -9 -14 3 -113 12 -107 4 2 8
-10 8 -27 1 -28 10 -72 14 -72 1 0 3 -13 4 -30 2 -16 7 -41 11 -55 4 -14 9
-37 12 -52 3 -15 9 -25 14 -23 4 3 5 -10 2 -29 -3 -19 -1 -36 5 -40 6 -4 9
-13 5 -21 -3 -8 -1 -15 4 -15 8 0 12 -16 14 -62 0 -10 3 -18 7 -18 4 0 8 -17
10 -37 1 -20 6 -39 10 -43 4 -3 7 -12 7 -20 -1 -8 2 -19 6 -25 4 -5 7 -14 8
-20 0 -28 13 -75 19 -71 6 4 10 -15 12 -67 1 -10 6 -15 12 -11 6 4 8 3 4 -4
-3 -6 -1 -23 5 -39 11 -29 17 -49 26 -93 3 -14 12 -31 21 -38 9 -6 11 -12 5
-12 -12 0 9 -84 27 -105 5 -6 7 -15 3 -18 -3 -4 -2 -12 4 -19 5 -7 22 -52 38
-100 20 -60 34 -88 45 -88 13 0 13 -2 1 -9 -10 -7 -12 -13 -5 -23 6 -7 17 -33
24 -58 16 -54 29 -72 43 -63 6 3 7 1 3 -6 -4 -6 -13 -8 -19 -4 -7 4 -4 -5 5
-20 10 -14 18 -33 18 -41 0 -7 7 -17 16 -20 8 -3 13 -10 10 -15 -8 -13 27
-102 54 -135 13 -17 13 -18 0 -11 -13 8 -13 7 0 -9 8 -10 16 -28 17 -39 2 -12
8 -24 13 -25 6 -2 8 -8 4 -13 -3 -5 0 -9 7 -9 7 0 10 -3 6 -6 -3 -4 1 -13 9
-21 8 -8 12 -19 9 -24 -4 -5 -1 -9 5 -9 6 0 9 -4 5 -9 -3 -5 -1 -12 5 -16 6
-4 8 -11 5 -16 -4 -5 -2 -9 4 -9 5 0 12 -14 16 -31 4 -17 13 -33 21 -36 8 -3
11 -9 8 -14 -3 -5 -1 -9 5 -9 6 0 8 -6 5 -13 -3 -8 2 -20 10 -27 9 -7 13 -17
9 -23 -4 -6 0 -8 8 -5 11 4 15 -1 15 -21 -1 -15 4 -25 11 -24 8 2 10 -4 6 -14
-4 -11 -3 -14 5 -9 8 5 10 1 5 -10 -4 -11 -2 -15 4 -11 6 4 10 -3 9 -16 0 -12
4 -21 11 -20 7 2 10 -4 7 -12 -4 -8 -1 -15 5 -15 6 0 11 -9 11 -20 0 -11 4
-20 10 -20 5 0 9 -6 7 -12 -1 -7 4 -12 11 -10 8 1 11 -2 7 -8 -4 -6 6 -27 21
-47 15 -20 21 -33 13 -29 -8 4 -5 0 5 -8 11 -9 16 -16 11 -16 -5 0 2 -12 16
-27 13 -14 17 -22 10 -18 -17 10 25 -53 49 -73 8 -8 9 -11 2 -7 -6 3 -3 -10 9
-29 12 -20 26 -36 32 -36 6 0 8 -3 5 -6 -6 -5 7 -29 50 -90 7 -11 10 -12 6 -4
-4 9 -3 12 2 7 5 -5 9 -12 9 -15 2 -24 18 -51 27 -46 7 4 8 2 4 -5 -4 -6 -1
-18 6 -26 24 -26 34 -40 38 -50 7 -21 40 -69 40 -60 0 6 8 -5 16 -22 9 -18 20
-30 25 -27 5 3 9 -3 9 -13 0 -21 26 -55 55 -72 19 -12 19 -12 1 -6 -19 6 -19
5 -2 -14 10 -11 23 -18 27 -15 5 3 6 -1 3 -9 -3 -8 3 -21 13 -28 10 -8 25 -27
33 -43 8 -16 30 -39 50 -52 19 -13 30 -24 24 -24 -5 0 -16 6 -24 13 -23 19 41
-54 73 -84 15 -14 27 -31 27 -37 0 -7 5 -12 10 -12 6 0 10 -6 10 -13 0 -7 13
-24 30 -37 16 -14 29 -31 30 -39 0 -8 3 -11 7 -8 3 4 11 -3 18 -16 6 -12 18
-21 27 -21 10 1 14 -4 11 -12 -3 -8 1 -14 8 -14 7 0 10 -3 6 -6 -9 -9 25 -44
37 -37 6 3 8 3 4 -2 -4 -4 9 -24 30 -43 20 -20 36 -38 34 -41 -2 -3 5 -8 15
-12 10 -4 14 -8 8 -8 -5 -1 7 -12 28 -26 20 -14 37 -28 37 -32 0 -3 -8 0 -18
8 -9 7 -5 1 10 -14 15 -15 32 -27 37 -27 5 0 13 -5 17 -12 5 -7 2 -9 -7 -4 -8
4 -3 -2 10 -13 12 -12 27 -18 32 -15 5 3 6 -2 3 -10 -3 -9 9 -23 38 -41 24
-15 34 -24 23 -21 -16 6 -15 2 7 -19 15 -14 32 -25 38 -25 6 0 8 -4 5 -10 -3
-5 0 -10 8 -10 8 0 21 -8 28 -17 12 -16 12 -17 -1 -8 -9 6 -7 2 3 -7 11 -10
23 -15 28 -12 5 3 8 2 7 -3 -3 -9 75 -93 87 -93 4 0 16 -9 26 -21 10 -11 23
-18 28 -14 6 3 9 0 5 -8 -3 -8 2 -20 11 -27 14 -12 18 -11 26 1 8 11 9 10 7
-6 -2 -12 2 -19 10 -17 8 1 11 -1 8 -6 -5 -9 28 -42 43 -42 5 0 12 -7 15 -16
3 -8 10 -12 16 -9 5 3 10 -2 10 -12 0 -14 2 -15 9 -5 6 10 10 8 14 -9 4 -13 9
-20 12 -17 4 4 23 -10 42 -30 20 -21 32 -30 28 -22 -4 8 4 3 17 -12 14 -16 28
-28 32 -28 7 0 11 -3 69 -55 21 -19 47 -37 58 -40 10 -4 19 -10 19 -15 0 -5 7
-6 17 -3 10 4 14 2 10 -4 -8 -13 39 -46 53 -38 6 4 7 -2 3 -12 -3 -10 -3 -15
2 -11 4 4 14 0 22 -10 9 -11 12 -12 8 -2 -4 8 4 2 19 -14 14 -16 26 -25 26
-20 0 5 5 1 11 -9 6 -9 14 -15 20 -12 5 4 12 -1 15 -10 4 -10 13 -14 22 -10 9
3 13 3 9 -1 -9 -10 104 -85 116 -77 6 3 7 2 4 -4 -5 -8 35 -39 55 -42 4 -1 19
-13 34 -26 15 -14 30 -22 35 -19 5 2 16 -4 26 -15 9 -11 20 -18 25 -15 4 3 11
-2 14 -10 3 -9 10 -13 15 -10 5 3 9 1 9 -4 0 -4 16 -14 35 -22 19 -8 35 -17
35 -22 0 -4 7 -8 15 -8 8 0 15 -3 15 -7 0 -16 48 -31 60 -19 8 8 9 6 5 -6 -4
-11 -2 -18 4 -18 6 0 13 0 16 0 3 0 14 -9 25 -20 21 -21 68 -45 83 -42 4 1 7
-3 7 -9 0 -5 4 -7 10 -4 5 3 10 3 10 -2 0 -4 10 -13 23 -19 78 -39 204 -107
216 -117 12 -9 13 -9 7 1 -4 7 9 1 29 -13 21 -13 41 -22 46 -19 5 3 9 1 9 -4
0 -6 23 -18 50 -28 28 -10 50 -22 50 -28 0 -5 3 -7 6 -3 3 3 22 -3 42 -13 19
-11 40 -16 45 -13 6 4 7 1 2 -7 -6 -10 -4 -12 9 -7 10 4 15 3 11 -3 -6 -9 8
-14 28 -11 4 0 7 -4 7 -11 0 -6 3 -9 6 -5 4 3 19 0 35 -9 16 -8 30 -13 32 -12
2 2 15 -5 30 -15 15 -10 33 -15 39 -11 7 5 8 3 3 -6 -6 -10 -4 -12 8 -7 10 3
17 3 17 -1 0 -4 12 -12 28 -18 39 -16 66 -27 75 -29 4 -2 10 -4 15 -5 4 -1 10
-2 15 -1 4 0 7 -3 7 -8 0 -6 9 -8 20 -6 11 2 18 0 15 -6 -4 -5 -1 -9 4 -9 19
0 26 -2 46 -13 11 -6 26 -10 33 -9 6 2 12 -2 12 -8 0 -5 8 -10 18 -10 10 0 24
-6 31 -12 11 -11 12 -10 6 2 -6 11 -3 10 12 -3 11 -9 26 -17 34 -17 8 0 20 -5
27 -12 7 -7 12 -8 12 -4 0 5 8 2 17 -5 15 -12 16 -12 8 1 -5 9 0 8 13 -4 16
-14 22 -15 22 -6 0 9 5 7 13 -5 9 -11 19 -15 27 -10 8 5 11 4 7 -1 -4 -8 65
-35 126 -50 4 -1 9 -3 12 -4 3 -1 8 -3 13 -4 4 -1 12 -4 17 -7 6 -4 24 -10 40
-14 17 -5 37 -10 45 -12 8 -3 23 -5 33 -6 9 -1 17 -5 17 -10 0 -5 7 -7 15 -3
8 3 15 0 15 -6 0 -6 3 -8 7 -5 3 4 11 3 17 -2 7 -6 25 -13 41 -16 37 -7 45
-10 67 -19 10 -5 23 -6 30 -3 7 2 20 -1 28 -8 18 -16 90 -36 102 -29 4 3 8 1
8 -5 0 -5 9 -8 20 -6 11 2 20 0 20 -5 0 -4 11 -7 25 -6 13 2 22 0 20 -5 -5 -7
14 -13 79 -25 16 -3 33 -7 38 -10 12 -8 59 -17 90 -18 14 -1 24 -4 21 -8 -4
-8 0 -9 47 -13 14 -2 36 -7 50 -12 14 -5 34 -9 45 -9 11 1 23 -3 26 -7 3 -4
22 -9 42 -10 21 -1 37 -5 37 -9 0 -5 3 -7 8 -6 4 1 22 -2 40 -6 43 -10 79 -16
118 -20 17 -1 35 -5 40 -8 5 -4 25 -9 44 -12 19 -3 51 -8 70 -12 19 -3 45 -7
58 -8 12 0 22 -3 22 -6 0 -3 8 -6 19 -7 35 -3 102 -24 97 -31 -5 -9 20 -33 27
-25 3 3 3 -4 0 -16 -3 -14 0 -23 11 -27 9 -3 14 -9 11 -14 -2 -4 5 -16 15 -28
11 -12 20 -26 20 -32 0 -5 5 -10 10 -10 6 0 10 -6 10 -13 0 -7 9 -18 20 -25
11 -7 20 -19 20 -27 0 -9 16 -25 35 -36 38 -23 45 -31 18 -23 -10 3 -8 -1 5
-8 12 -8 19 -17 15 -22 -4 -4 0 -4 10 0 12 4 17 1 17 -13 0 -21 36 -47 52 -37
7 5 9 2 5 -8 -5 -14 26 -38 44 -34 4 0 16 -7 27 -17 12 -11 26 -16 31 -12 6 3
14 -1 17 -10 4 -9 13 -14 21 -11 8 3 11 1 8 -4 -5 -9 23 -15 47 -11 5 0 8 -4
8 -10 0 -6 7 -9 15 -5 8 3 15 1 15 -4 0 -6 3 -9 8 -9 24 4 42 -2 36 -13 -5 -7
-2 -9 8 -5 9 3 19 3 23 -1 4 -4 11 -8 16 -8 5 -1 11 -3 14 -4 3 -1 8 -3 13 -4
4 -2 27 -8 52 -15 25 -7 52 -15 60 -16 8 -2 39 -10 68 -18 31 -8 55 -10 58 -5
3 5 15 1 27 -9 14 -12 18 -13 12 -3 -8 13 -6 13 8 2 9 -8 21 -11 27 -7 5 3 10
2 10 -3 0 -5 21 -13 48 -18 26 -4 54 -9 62 -11 8 -2 33 -4 55 -6 22 -1 43 -6
47 -11 4 -6 13 -4 23 4 13 10 15 11 13 1 -2 -7 6 -15 17 -16 11 -2 38 -6 60
-10 22 -3 56 -8 75 -9 19 -2 35 -5 35 -6 0 -1 9 -4 20 -5 11 -2 36 -6 55 -9
85 -13 139 -19 190 -22 30 -1 55 -3 55 -4 0 -4 85 -13 128 -14 26 0 47 -3 47
-7 0 -7 -11 -6 172 -12 81 -3 152 -8 158 -12 5 -3 10 -1 10 5 0 8 6 8 20 0 14
-8 20 -8 20 0 0 8 6 8 20 0 14 -8 20 -8 20 0 0 7 6 8 18 1 10 -5 24 -6 32 -1
8 5 22 4 32 -1 12 -7 18 -6 18 1 0 8 6 8 20 0 14 -8 20 -8 20 0 0 8 6 8 20 0
14 -8 20 -8 20 0 0 7 7 7 21 -1 16 -8 20 -8 14 1 -6 9 -2 9 14 1 16 -9 21 -9
21 1 0 9 3 9 12 0 7 -7 17 -8 30 -1 10 6 18 6 18 0 0 -5 14 -6 35 -1 21 5 35
4 35 -1 0 -6 9 -5 20 1 14 8 20 8 20 0 0 -8 6 -8 20 0 14 8 20 8 20 0 0 -8 6
-8 20 0 14 8 20 8 20 0 0 -8 6 -8 20 0 14 8 20 8 20 0 0 -8 6 -8 20 0 14 8 20
8 20 0 0 -8 6 -8 20 0 14 8 20 8 20 0 0 -8 6 -8 20 0 15 8 20 8 20 -1 0 -9 3
-9 14 0 10 9 16 9 21 1 5 -8 10 -8 20 0 10 8 15 8 20 0 5 -8 11 -8 21 1 11 9
14 9 14 0 0 -9 5 -9 20 -1 14 8 20 8 20 0 0 -8 6 -8 20 0 14 8 20 8 20 0 0 -8
6 -8 20 0 14 8 20 8 20 0 0 -7 6 -8 18 -1 11 6 24 6 35 0 11 -7 17 -6 17 1 0
8 6 8 20 0 14 -8 20 -8 20 0 0 8 6 8 20 0 14 -8 20 -8 20 0 0 8 6 8 20 0 14
-8 20 -8 20 0 0 8 6 8 20 0 14 -8 20 -8 20 0 0 8 6 8 20 0 14 -8 20 -8 20 0 0
8 6 8 20 0 15 -8 20 -8 20 1 0 8 4 8 15 -1 12 -10 15 -10 15 0 0 9 3 10 13 1
10 -7 17 -7 24 0 8 8 13 8 17 0 5 -7 15 -7 31 -1 16 6 25 6 25 -1 0 -6 7 -6
20 1 14 8 20 8 20 0 0 -8 6 -8 20 0 14 8 20 8 20 0 0 -8 6 -8 20 0 14 8 20 8
20 0 0 -8 6 -8 20 0 14 8 20 8 20 0 0 -8 6 -8 20 0 14 8 20 8 20 0 0 -8 6 -8
20 0 14 8 20 8 20 0 0 -8 6 -8 20 0 14 8 20 8 20 0 0 -7 6 -8 19 0 14 7 22 7
26 0 4 -6 11 -7 17 -4 5 3 42 8 81 10 40 2 88 6 107 8 102 12 233 16 264 7 25
-6 36 -6 36 1 0 6 6 6 15 -2 12 -10 18 -10 30 0 13 11 14 10 9 -6 -4 -10 -4
-16 0 -12 4 3 21 2 37 -2 18 -5 29 -5 29 1 0 6 7 6 19 -1 11 -5 37 -12 58 -15
21 -3 55 -8 76 -11 21 -3 79 -7 128 -9 50 -2 93 -6 96 -9 3 -2 15 -1 27 4 13
4 29 5 36 0 7 -5 24 -4 36 0 14 6 26 5 29 0 4 -7 13 -6 25 0 11 6 21 6 25 1 3
-5 18 -6 33 -2 33 9 43 8 60 -3 7 -4 18 -4 25 1 14 10 38 10 54 0 6 -4 15 -3
18 3 5 8 11 8 20 0 8 -7 20 -8 27 -4 18 11 48 12 54 2 3 -4 9 -6 13 -3 5 2 42
7 82 9 84 6 99 8 116 19 8 5 13 3 13 -3 0 -6 4 -9 9 -5 5 3 36 8 67 11 32 3
62 8 67 11 4 2 18 6 30 8 73 9 112 18 115 25 2 4 12 6 22 3 11 -3 20 -1 20 4
0 5 8 9 18 9 47 2 114 23 107 33 -2 5 7 6 20 3 14 -2 25 0 25 5 0 5 8 9 18 10
26 2 102 36 102 46 0 4 4 6 9 2 14 -8 92 35 84 48 -3 5 -2 7 4 4 12 -7 63 14
63 26 0 5 4 6 9 3 5 -3 12 1 15 10 3 8 10 13 15 9 5 -3 17 5 26 17 8 13 18 22
20 21 3 -2 8 -2 13 -1 4 2 489 3 1077 3 589 1 1093 4 1120 8 28 3 99 8 158 11
60 3 112 8 117 11 4 3 25 7 46 10 40 5 75 12 84 15 3 1 8 2 12 1 3 0 30 7 60
16 29 9 55 17 58 18 43 11 90 30 90 35 0 8 49 25 63 22 4 -1 7 3 7 8 0 6 6 10
13 10 7 0 23 9 35 20 12 12 22 17 22 13 0 -4 10 3 21 17 11 14 18 19 14 12 -6
-11 -3 -11 14 0 12 7 21 16 21 21 0 4 -5 5 -12 1 -7 -4 -8 -3 -4 5 4 6 11 9
16 6 5 -3 14 1 22 8 7 8 23 19 35 26 13 6 20 17 17 25 -3 8 0 17 7 22 8 4 10
3 5 -4 -5 -8 -2 -10 9 -6 12 5 13 9 3 21 -10 12 -9 14 8 11 11 -2 18 2 17 10
-2 6 4 12 12 12 14 0 19 12 16 33 0 4 5 7 13 7 16 0 29 27 19 42 -3 7 -1 8 5
4 12 -7 45 47 35 58 -4 3 -2 6 4 6 11 0 37 57 34 73 -1 4 6 15 15 24 12 13 13
17 2 24 -8 6 -9 9 -1 9 18 0 33 55 20 70 -9 10 -9 11 1 6 6 -4 13 -4 13 1 1 4
3 17 5 28 1 11 6 31 9 45 20 74 9 440 -14 440 -3 0 -7 12 -8 28 -1 15 -9 44
-18 64 -8 21 -15 41 -16 45 0 5 -7 15 -15 24 -8 9 -11 19 -7 22 3 4 2 7 -4 7
-6 0 -13 9 -16 20 -3 11 -13 20 -24 20 -11 0 -14 3 -7 8 7 5 2 16 -14 32 -16
15 -20 17 -11 5 13 -18 13 -19 -3 -6 -10 7 -18 19 -18 26 0 7 -8 19 -17 26
-17 13 -17 12 -4 -6 8 -11 0 -5 -16 12 -17 18 -33 30 -37 26 -3 -3 -6 -1 -6 5
0 7 -7 12 -15 12 -8 0 -15 5 -15 10 0 6 -7 10 -15 10 -8 0 -15 5 -15 11 0 5
-4 8 -9 4 -5 -3 -13 0 -16 5 -6 9 -46 31 -65 34 -3 1 -11 5 -17 9 -7 5 -18 5
-23 2 -6 -3 -10 -1 -10 5 0 6 -5 8 -10 5 -5 -3 -10 -1 -10 5 0 6 -4 9 -9 5 -5
-3 -12 -1 -16 5 -4 6 -11 8 -16 4 -11 -6 -39 13 -39 27 0 4 15 23 33 43 74 80
96 106 89 106 -3 0 4 7 16 16 13 9 21 22 18 30 -3 8 -2 13 2 13 17 -3 32 2 30
9 -1 4 10 20 25 36 14 16 24 32 21 37 -3 5 2 9 11 9 11 0 15 5 11 15 -3 8 -2
14 3 12 8 -2 61 56 61 67 0 3 9 15 20 26 12 12 18 25 15 30 -4 6 1 10 9 10 9
0 16 7 16 15 0 8 5 15 10 15 6 0 10 7 10 15 0 8 5 15 10 15 6 0 10 6 10 14 0
8 3 16 7 18 12 5 53 66 53 78 0 5 3 10 8 10 7 0 13 10 42 66 8 16 17 31 20 34
14 14 30 52 25 61 -4 5 -1 8 7 7 7 -2 12 3 10 10 -1 7 5 15 13 18 8 4 15 15
15 25 0 10 5 19 11 19 5 0 8 4 5 9 -4 5 -2 11 2 13 13 5 62 110 56 119 -3 5
-1 9 3 9 5 0 14 9 21 21 11 17 11 20 0 14 -7 -3 -6 -1 3 7 13 11 30 44 34 68
0 3 6 15 13 28 7 12 10 28 6 34 -5 7 -3 8 6 3 10 -6 12 -4 7 9 -4 9 -3 15 2
12 4 -3 13 12 20 33 6 22 18 55 26 75 8 20 15 38 15 41 0 3 6 20 14 39 8 19
12 37 8 40 -3 3 0 6 7 6 7 0 10 4 6 9 -3 5 -1 12 4 16 6 3 8 12 4 20 -3 8 0
15 6 15 6 0 10 3 10 8 -1 4 0 9 1 12 5 15 12 48 14 67 0 12 3 19 6 17 7 -8 39
136 35 157 -2 11 0 17 6 14 5 -4 10 2 10 12 3 43 7 61 13 72 4 6 1 11 -6 11
-9 0 -10 2 -2 8 11 7 44 156 43 197 0 11 3 38 7 60 5 22 8 70 9 107 0 38 4 68
9 68 5 0 3 6 -3 14 -7 8 -8 16 -4 19 4 3 6 51 3 107 -3 56 -2 104 3 107 4 2 3
12 -2 21 -6 11 -6 24 0 35 7 12 6 17 -2 17 -9 0 -9 3 0 14 9 10 9 16 1 21 -8
5 -8 11 -1 19 6 7 8 15 5 19 -3 3 -7 48 -8 99 -4 152 -6 169 -13 165 -5 -3 -8
14 -9 36 0 23 -4 53 -7 67 -3 14 -8 46 -11 72 -3 25 -10 58 -15 71 -5 14 -7
28 -4 31 4 3 1 6 -6 6 -7 0 -10 4 -7 8 3 5 0 26 -6 48 -6 21 -11 42 -10 47 1
4 -2 7 -6 7 -4 0 -9 12 -10 28 -1 15 -7 29 -12 30 -6 2 -8 7 -5 12 3 5 0 21
-7 37 -6 15 -12 30 -12 33 -1 3 -5 11 -9 18 -5 6 -5 12 0 12 4 0 2 4 -5 9 -7
4 -14 18 -15 29 -1 12 -6 22 -11 22 -5 0 -6 3 -3 6 3 4 1 16 -5 28 -7 11 -11
24 -10 29 1 4 -3 7 -10 7 -6 0 -9 3 -5 6 3 4 -1 13 -9 21 -8 8 -12 19 -9 24 4
5 1 9 -5 9 -6 0 -8 5 -5 10 3 6 1 10 -4 10 -6 0 -10 3 -10 8 3 20 -2 33 -11
27 -6 -4 -10 -3 -9 2 5 29 -2 45 -18 38 -13 -4 -15 -3 -7 5 12 12 -3 60 -18
60 -5 0 -8 6 -8 13 0 7 -9 18 -20 25 -11 7 -17 18 -14 27 4 8 -1 17 -10 21 -9
3 -16 15 -16 26 0 10 -4 16 -10 13 -5 -3 -10 2 -10 12 -1 20 -33 63 -48 63 -5
0 -13 7 -16 16 -6 15 -4 15 10 3 10 -8 -3 12 -27 45 -31 42 -43 66 -41 85 2
14 4 40 5 58 1 17 5 29 10 26 4 -2 8 6 9 19 0 13 2 28 3 33 2 6 3 21 4 34 1
19 4 21 16 11 8 -6 20 -8 26 -4 8 5 9 3 4 -6 -6 -10 -4 -12 11 -6 10 4 15 4
11 0 -9 -10 62 -46 75 -38 6 4 8 3 5 -3 -4 -6 3 -14 16 -18 12 -4 25 -8 30
-10 18 -6 22 -7 30 -6 4 0 7 -3 7 -8 0 -8 37 -24 53 -22 4 1 7 -4 7 -10 0 -5
5 -7 10 -4 5 3 10 1 10 -4 0 -6 9 -11 19 -11 11 0 23 -5 26 -11 4 -6 13 -8 21
-5 7 3 20 -1 28 -9 8 -8 23 -16 33 -18 10 -2 26 -7 35 -11 9 -4 22 -9 30 -10
13 -3 21 -6 63 -22 23 -9 16 -6 87 -28 32 -9 59 -16 60 -15 2 1 13 -3 24 -9
22 -11 74 -24 107 -26 9 0 17 -3 17 -6 0 -6 14 -9 60 -13 14 -1 27 -5 30 -9 3
-3 23 -9 45 -11 22 -2 47 -7 55 -11 9 -3 43 -7 77 -9 33 -1 59 -5 57 -8 -3 -6
48 -11 138 -13 32 -1 58 -5 58 -9 0 -4 9 -3 20 3 14 8 20 8 20 0 0 -8 6 -8 20
0 14 8 20 8 20 0 0 -8 6 -8 20 0 14 8 20 8 20 0 0 -8 6 -8 20 0 14 8 20 8 20
0 0 -8 6 -8 20 0 14 8 20 8 20 0 0 -8 6 -8 20 0 14 8 20 8 20 0 0 -7 6 -8 18
-1 11 6 24 6 35 0 11 -7 17 -7 17 0 0 6 11 6 30 1 19 -5 30 -5 30 1 0 6 8 5
20 -1 11 -6 20 -7 20 -3 0 4 35 8 78 9 89 1 270 31 291 48 12 9 13 8 6 -4 -8
-13 -7 -13 8 -1 9 7 17 11 17 8 0 -4 21 0 90 17 8 3 27 9 43 15 15 6 27 7 27
4 0 -4 5 -2 11 4 6 6 18 9 25 6 8 -3 14 0 14 6 0 6 3 10 8 9 11 -4 102 24 102
31 0 4 10 7 22 8 11 1 24 6 27 10 3 4 11 8 16 9 22 3 55 17 55 24 0 5 9 6 20
3 11 -3 20 0 20 6 0 6 5 11 11 11 19 0 139 62 139 72 0 5 4 7 9 4 14 -9 42 5
34 17 -3 5 -1 7 5 3 6 -3 18 1 26 10 9 8 16 13 16 9 0 -3 13 2 29 11 17 10 28
21 25 26 -3 5 -2 7 3 6 16 -4 51 13 57 27 3 8 13 15 22 15 8 0 25 10 36 23 11
12 16 16 12 8 -6 -13 -5 -13 12 0 10 8 43 31 72 52 28 22 49 44 45 49 -3 7 -1
8 5 4 14 -8 53 24 45 37 -4 6 -1 7 6 2 8 -4 23 4 41 24 16 17 33 31 38 31 5 0
16 8 23 18 13 16 13 16 -6 2 -19 -14 -19 -14 -6 3 7 9 18 17 25 17 18 0 97 91
89 103 -4 7 1 6 10 -2 16 -12 17 -12 11 5 -4 10 -4 16 0 13 11 -10 107 91 100
103 -5 7 -2 8 5 4 13 -9 43 23 34 37 -2 4 0 6 5 5 12 -4 103 103 96 114 -3 5
-1 7 4 6 6 -2 10 1 10 6 0 5 7 13 16 18 9 5 14 14 10 19 -3 5 0 8 8 7 7 -2 12
3 11 10 -2 6 1 12 6 12 5 0 19 13 31 30 19 27 19 29 3 25 -12 -4 -11 -2 3 6
12 6 28 23 35 38 8 14 21 32 29 39 13 12 13 13 0 7 -9 -4 -7 0 4 9 10 8 15 20
10 27 -4 8 -3 10 4 5 7 -4 17 3 24 18 6 14 15 26 20 26 5 0 6 4 3 10 -3 6 -1
10 5 10 6 0 9 4 6 9 -3 5 1 12 10 15 8 3 12 10 9 16 -3 5 -1 10 6 10 7 0 10 3
6 6 -3 4 1 13 9 21 8 8 11 19 8 25 -4 6 -2 8 3 5 10 -6 50 62 44 72 -2 2 1 7
6 10 11 8 37 63 35 74 -1 4 3 7 9 7 11 0 35 59 30 75 -1 5 1 6 5 2 9 -9 46 62
38 74 -3 5 0 9 6 9 6 0 9 4 6 9 -4 5 -3 11 1 13 14 5 53 89 47 99 -3 5 -1 9 4
9 12 0 43 80 36 91 -3 5 0 9 5 9 9 0 40 58 45 85 1 6 5 15 9 22 4 6 1 14 -5
16 -9 4 -8 6 2 6 16 1 43 58 34 72 -3 5 -1 9 4 9 5 0 13 15 17 33 4 17 8 34 9
37 1 3 4 10 8 16 4 6 9 21 12 35 3 13 8 35 11 49 4 14 8 34 10 45 8 45 15 68
20 73 2 3 0 11 -6 19 -6 7 -7 13 -2 13 5 0 10 6 11 13 0 6 3 24 6 38 16 71 23
204 22 392 -1 171 -4 210 -16 217 -12 8 -12 10 -1 10 8 0 11 6 7 17 -6 14 -10
57 -18 181 -1 6 -4 12 -7 12 -4 0 -7 15 -8 32 -2 51 -18 136 -50 263 -2 11 -5
26 -5 33 -1 6 -5 12 -9 12 -5 0 -5 7 -2 17 4 10 2 14 -5 9 -7 -4 -9 1 -6 16 2
13 -10 68 -28 123 -17 55 -30 111 -29 125 2 14 3 31 4 38 0 6 4 12 9 12 4 0 7
3 6 8 -1 4 4 17 11 30 7 13 10 30 7 38 -3 8 -2 13 3 10 8 -5 26 48 22 67 0 4
4 7 10 7 5 0 8 4 4 9 -3 5 0 13 6 16 5 4 8 13 5 21 -3 8 -1 14 3 14 15 0 22
33 9 42 -10 6 -9 8 3 8 10 0 19 12 24 33 4 17 8 34 9 37 1 3 5 11 9 18 5 6 5
17 2 22 -3 6 -1 10 6 10 7 0 9 10 7 25 -3 13 -1 22 3 19 8 -5 13 13 12 44 -1
6 2 12 6 12 4 0 8 6 9 13 5 46 11 76 21 100 14 35 24 98 25 159 1 27 4 48 7
48 4 0 3 15 -1 34 -4 18 -3 41 2 50 6 10 5 16 -2 16 -7 0 -8 6 -1 18 6 11 6
24 0 34 -6 10 -6 19 0 23 6 3 8 11 6 18 -2 7 -6 35 -9 62 -6 54 -29 130 -47
152 -6 7 -8 13 -5 13 4 0 0 7 -8 16 -9 8 -14 19 -11 23 2 5 -13 27 -35 49 -22
22 -40 44 -40 49 0 10 -42 38 -52 35 -5 -1 -7 3 -5 9 1 5 -16 20 -38 32 -22
12 -42 25 -45 28 -6 7 -62 23 -72 21 -5 -1 -8 2 -8 6 0 10 -99 36 -107 28 -3
-3 -14 -1 -24 5 -13 7 -19 6 -19 -1 0 -7 -6 -8 -19 0 -14 7 -22 7 -26 0 -5 -8
-11 -8 -19 -1 -7 6 -15 8 -19 5 -3 -3 -29 -7 -57 -8 -28 -2 -56 -8 -63 -15 -6
-6 -21 -11 -34 -11 -13 0 -23 -3 -23 -8 0 -4 -18 -15 -40 -25 -22 -9 -40 -21
-40 -27 0 -5 -6 -9 -12 -7 -7 1 -12 -4 -10 -11 1 -8 -2 -11 -7 -7 -6 3 -15 -4
-21 -15 -6 -11 -16 -19 -23 -17 -7 1 -11 -6 -11 -15 1 -10 -2 -16 -6 -13 -4 2
-21 -11 -38 -30 -16 -19 -28 -35 -25 -35 2 0 -2 -7 -9 -15 -7 -8 -19 -21 -26
-29 -10 -12 -17 -13 -37 -4 -14 6 -25 15 -25 20 0 5 -4 7 -9 4 -5 -3 -12 1
-15 10 -3 8 -10 13 -15 10 -5 -3 -12 1 -15 10 -3 8 -10 12 -16 9 -5 -3 -10 -1
-10 5 0 7 -7 9 -16 6 -9 -3 -12 -2 -9 5 4 6 -2 13 -14 16 -12 3 -21 9 -21 14
0 5 -7 5 -17 2 -10 -4 -14 -2 -10 4 5 7 -8 16 -30 23 -21 7 -44 17 -50 23 -7
5 -13 6 -13 2 0 -4 -7 -2 -15 5 -8 7 -15 9 -15 5 0 -4 -7 -2 -15 5 -8 7 -21
10 -29 7 -8 -3 -20 0 -26 8 -6 7 -24 12 -41 11 -17 -1 -32 0 -34 3 -3 6 -103
4 -155 -3 -14 -1 -33 -4 -43 -4 -11 -1 -15 -7 -11 -14 5 -7 3 -8 -6 -3 -16 10
-91 -15 -83 -28 4 -6 0 -8 -11 -4 -10 4 -19 1 -22 -8 -4 -8 -11 -12 -17 -8 -5
3 -16 -2 -24 -12 -7 -11 -13 -15 -13 -10 0 4 -9 0 -20 -10 -11 -10 -17 -22
-14 -26 3 -5 -3 -6 -12 -2 -12 4 -15 3 -10 -5 4 -7 1 -12 -8 -12 -9 0 -16 -6
-16 -14 0 -8 -5 -18 -12 -22 -7 -5 -8 -3 -3 6 5 9 4 11 -3 6 -7 -4 -12 -13
-12 -19 0 -7 -12 -23 -26 -36 -14 -13 -23 -30 -20 -38 3 -7 1 -13 -4 -13 -5 0
-19 -21 -31 -47 -12 -27 -24 -52 -27 -57 -3 -5 0 -6 6 -2 6 3 4 -8 -5 -24 -8
-17 -13 -42 -10 -56 2 -13 2 -26 -2 -28 -3 -2 -4 -50 -1 -106 3 -56 2 -104 -3
-107 -4 -2 -5 -9 -1 -14 3 -5 7 -35 9 -67 6 -77 7 -82 17 -82 5 0 6 -4 3 -10
-3 -5 -3 -16 2 -22 4 -7 8 -22 9 -33 1 -11 9 -46 18 -78 9 -32 16 -60 16 -63
0 -3 3 -3 8 -1 4 3 8 -9 9 -26 1 -17 8 -34 15 -39 7 -4 9 -8 4 -8 -5 0 -2 -7
5 -17 8 -9 14 -19 13 -22 -2 -16 9 -40 17 -35 5 3 6 -2 3 -11 -4 -8 -1 -22 6
-30 7 -8 9 -15 5 -15 -4 0 -2 -7 5 -15 13 -16 23 -88 11 -81 -10 7 -81 -15
-81 -25 0 -4 -7 -10 -16 -13 -9 -3 -12 -2 -8 5 3 6 -3 5 -14 -2 -12 -7 -18
-17 -15 -23 4 -5 1 -6 -7 -1 -7 4 -16 2 -21 -6 -6 -10 -9 -11 -9 -1 0 10 -4
10 -22 0 -13 -7 -26 -17 -30 -23 -4 -5 -13 -10 -20 -11 -25 -2 -58 -16 -58
-25 0 -5 -9 -9 -19 -9 -11 0 -26 -6 -33 -13 -7 -7 -16 -14 -21 -14 -34 -5 -67
-16 -67 -23 0 -4 -9 -6 -20 -3 -12 3 -20 0 -20 -7 0 -7 -7 -10 -15 -6 -8 3
-15 2 -15 -3 0 -4 -12 -6 -26 -3 -19 3 -25 1 -20 -6 4 -8 2 -10 -8 -6 -8 3
-21 2 -28 -2 -16 -10 -208 -11 -230 -1 -12 5 -18 3 -18 -5 0 -9 -3 -9 -12 0
-7 7 -24 12 -39 12 -15 0 -31 5 -34 10 -3 6 -17 8 -31 6 -13 -3 -22 -1 -19 4
7 11 -64 32 -78 23 -6 -3 -7 -1 -4 4 4 6 -3 13 -16 17 -12 3 -22 4 -23 3 0 -1
-8 4 -17 12 -10 7 -17 10 -17 7 0 -4 -7 0 -16 8 -8 9 -20 13 -26 10 -6 -4 -8
-2 -5 3 7 10 -20 28 -35 25 -5 -1 -8 3 -8 9 0 5 -4 7 -10 4 -5 -3 -10 -1 -10
4 0 6 -7 11 -16 11 -8 0 -12 5 -9 10 3 6 2 10 -4 10 -5 0 -11 -3 -14 -7 -2 -5
-2 -3 -1 4 3 14 -39 43 -63 43 -14 0 -15 2 -4 9 9 6 10 11 2 15 -6 4 -11 4
-11 -1 0 -4 -5 0 -11 10 -6 9 -15 15 -20 11 -5 -3 -8 0 -7 8 2 7 -4 12 -12 10
-8 -2 -12 0 -8 4 9 8 -55 74 -72 74 -6 0 -9 4 -6 8 7 11 -30 42 -40 34 -4 -4
-4 -2 -1 4 4 6 -5 20 -18 30 -14 10 -25 23 -25 27 0 12 -26 37 -39 37 -5 0
-13 5 -17 12 -4 7 -3 8 4 4 7 -4 12 -2 12 3 0 6 -4 11 -8 11 -4 0 -16 14 -26
30 -9 17 -22 28 -27 24 -5 -3 -8 -2 -7 3 1 4 -7 23 -19 41 -14 23 -23 29 -27
20 -3 -7 -3 -3 0 10 4 15 0 24 -10 28 -9 3 -16 12 -16 20 0 8 -4 14 -10 14 -5
0 -10 7 -10 15 0 8 -4 15 -10 15 -5 0 -10 7 -10 15 0 8 -11 25 -25 39 -14 14
-25 28 -25 31 1 21 -1 25 -10 20 -6 -3 -7 1 -4 9 3 9 1 16 -5 16 -6 0 -11 6
-11 13 0 7 -9 23 -19 34 -11 12 -17 24 -14 27 4 3 1 6 -5 6 -7 0 -12 3 -11 8
2 13 -13 52 -20 52 -4 0 -13 16 -20 35 -7 19 -17 33 -22 29 -5 -3 -8 -2 -7 3
4 13 -43 123 -53 123 -5 0 -8 3 -7 8 4 13 -26 82 -35 82 -4 0 -5 4 -2 10 3 5
1 10 -6 10 -7 0 -10 3 -6 6 3 4 0 12 -7 19 -18 18 -15 70 4 71 30 1 80 17 80
24 0 5 9 6 20 3 12 -3 20 0 20 6 0 7 5 9 10 6 6 -3 10 -2 10 3 0 5 10 8 23 7
12 -1 35 4 51 12 20 10 26 11 21 2 -8 -13 7 -6 34 15 7 6 19 11 25 12 32 2 76
18 76 26 0 5 5 6 10 3 6 -3 10 -2 10 2 0 5 12 10 27 11 15 1 30 7 34 13 3 6 9
10 13 10 21 -2 68 14 73 24 2 7 12 12 21 10 22 -3 63 16 57 26 -3 4 4 5 15 2
11 -3 20 0 20 6 0 6 3 10 8 9 14 -4 82 24 82 33 0 6 4 8 9 5 14 -9 42 5 34 17
-3 6 -1 7 5 3 6 -4 23 0 36 9 14 9 29 17 33 17 22 2 63 21 63 30 0 5 5 6 11 2
6 -3 24 3 40 15 15 11 35 21 44 21 8 0 15 5 15 10 0 6 6 10 13 10 20 0 77 30
77 40 0 5 7 7 15 4 8 -4 17 1 21 10 3 9 10 14 14 11 12 -8 41 6 34 16 -3 5 -2
9 3 8 18 -3 32 2 47 17 9 9 24 17 34 19 9 1 16 7 15 13 -2 6 6 9 17 7 11 -2
20 0 20 6 0 5 7 9 16 9 8 0 13 4 10 8 -2 4 5 9 16 9 12 1 31 13 42 25 12 13
17 18 12 11 -6 -10 -4 -12 8 -7 9 3 16 10 16 15 0 5 6 9 13 9 6 0 30 14 51 30
22 17 46 30 53 30 7 0 13 7 13 16 0 10 6 14 14 11 8 -3 24 4 37 16 13 12 28
22 34 22 5 1 9 7 7 15 -2 8 0 12 3 8 10 -10 47 11 40 22 -3 6 1 7 9 4 9 -4 18
1 22 10 3 9 10 13 15 11 5 -3 16 3 26 15 10 11 21 20 26 20 14 0 36 27 29 35
-4 5 -2 5 4 2 10 -6 56 22 74 43 3 4 13 10 24 13 10 4 16 13 13 22 -4 9 -1 12
7 9 7 -3 27 8 43 25 17 17 34 27 38 23 5 -4 5 1 2 11 -4 11 -3 16 3 12 5 -3
22 7 37 22 14 15 23 21 18 13 -5 -8 8 2 28 23 20 21 37 35 37 31 0 -4 6 1 14
11 8 11 12 23 10 27 -3 4 1 5 8 3 15 -6 104 71 101 86 -2 5 0 8 5 7 11 -4 72
54 66 63 -3 5 3 6 12 2 12 -4 15 -3 10 5 -4 7 -1 12 9 12 9 0 14 4 11 9 -3 5
4 11 15 14 14 4 20 11 16 21 -4 9 -3 15 1 15 20 -3 33 2 27 11 -3 6 0 10 8 10
8 0 21 8 28 18 13 16 13 16 -6 2 -11 -8 8 13 42 46 35 34 60 64 56 68 -3 3 1
6 10 6 10 0 17 6 17 14 0 8 5 18 12 22 7 5 8 3 3 -6 -5 -9 -4 -11 4 -6 9 6 9
11 0 22 -7 9 -8 14 -3 13 22 -4 34 2 34 18 0 9 3 14 6 10 8 -7 60 54 56 66 -1
5 2 6 7 3 5 -3 17 7 26 22 10 15 24 34 32 42 49 52 83 94 83 101 0 4 16 23 35
42 19 19 35 39 35 46 0 6 3 10 8 8 8 -2 28 12 72 55 15 15 31 24 34 21 3 -4 6
-1 6 5 0 7 6 12 14 12 8 0 21 8 28 18 17 23 24 24 243 27 215 4 225 5 225 17
0 5 5 6 10 3 13 -8 110 16 110 27 0 4 6 5 14 2 7 -3 21 2 29 11 9 9 18 15 19
15 19 -7 133 72 121 84 -3 3 0 6 9 6 8 0 23 10 34 23 l19 22 -25 -20 c-14 -10
-8 -2 13 19 26 27 36 44 31 58 -4 12 -1 18 8 16 7 -2 12 5 12 15 -1 9 3 17 8
17 5 0 8 22 7 48 -1 26 0 53 4 59 4 6 2 13 -5 15 -10 4 -10 10 -1 31 7 15 9
27 5 27 -4 0 -7 15 -8 33 -1 47 -12 89 -25 98 -6 4 -8 12 -4 18 3 7 -3 28 -14
47 -12 19 -17 33 -12 30 5 -3 4 5 -2 19 -7 14 -16 25 -20 25 -5 0 -5 5 -2 11
4 5 -1 20 -12 31 -12 14 -13 19 -3 13 8 -4 4 4 -10 20 -14 16 -19 25 -12 20
12 -6 12 -3 1 16 -7 13 -14 26 -14 29 0 3 -6 15 -13 28 -7 12 -10 22 -7 22 3
0 -4 18 -15 41 -20 38 -20 40 -3 35 10 -3 41 -10 68 -17 28 -7 58 -16 69 -21
14 -8 17 -7 10 4 -6 11 -5 11 8 0 19 -16 45 -21 120 -26 32 -3 61 -7 65 -9 14
-9 85 2 101 15 9 7 13 8 9 2 -4 -7 4 -9 24 -6 16 2 29 8 29 12 0 5 9 6 20 3
12 -3 22 1 26 11 3 9 11 13 17 9 5 -3 16 2 23 11 7 10 14 17 16 16 10 -4 37
13 32 21 -3 5 2 9 10 9 8 0 21 10 27 22 6 12 20 31 31 42 10 11 16 26 14 32
-3 7 1 15 9 18 8 3 14 13 15 23 1 10 2 35 3 56 1 20 6 37 10 37 4 0 3 9 -3 20
-8 14 -8 20 0 20 6 0 8 5 5 11 -4 5 -8 22 -10 36 -1 14 -8 29 -15 33 -9 6 -9
9 0 12 7 2 9 13 5 31 -4 15 -11 25 -15 22 -4 -3 -11 2 -14 11 -3 8 -2 12 4 9
6 -3 10 -2 10 4 0 5 -4 12 -10 16 -5 3 -7 11 -5 18 8 21 -41 142 -56 139 -11
-3 -12 -1 -1 9 15 16 16 33 0 23 -7 -4 -8 -3 -4 4 4 7 4 18 -1 25 -8 12 -13
32 -15 55 -1 6 -8 12 -17 12 -13 0 -13 2 -3 9 11 7 11 10 0 22 -7 8 -13 21
-13 29 1 8 -5 23 -13 32 -8 9 -11 22 -7 27 3 6 -2 11 -12 12 -10 0 -13 3 -6 6
9 3 10 10 3 22 -5 10 -6 21 -3 25 3 3 1 6 -5 6 -7 0 -11 3 -10 8 1 4 -2 22 -6
41 -6 25 -11 30 -17 20 -7 -9 -7 -5 -3 14 3 15 2 27 -3 27 -5 0 -10 6 -11 13
0 6 -3 21 -6 32 -2 11 -5 26 -5 33 -1 7 -5 11 -10 7 -6 -3 -8 3 -6 15 2 11 -1
22 -6 25 -5 4 -7 10 -4 15 3 5 1 11 -5 15 -6 4 -8 11 -5 16 4 5 1 9 -5 9 -6 0
-8 5 -5 10 4 6 1 18 -7 27 -11 14 -11 16 2 8 13 -7 13 -6 2 7 -7 8 -15 35 -18
59 -4 24 -12 60 -19 80 -8 21 -11 40 -8 43 4 3 0 6 -7 6 -7 0 -10 3 -7 7 4 3
1 13 -6 21 -10 13 -9 14 1 8 11 -7 12 -4 4 10 -5 11 -12 42 -15 71 -3 29 -9
58 -13 65 -4 7 -9 31 -11 53 -4 57 -6 65 -12 65 -3 0 -7 12 -7 28 -3 57 -9 92
-15 92 -4 0 -5 14 -3 30 3 17 1 30 -3 30 -5 0 -9 18 -10 41 -1 22 -8 48 -15
57 -11 13 -11 14 1 7 11 -6 12 -5 5 6 -9 14 -10 19 -12 52 -1 12 -6 15 -14 11
-9 -6 -9 -3 0 9 12 14 11 21 -1 47 -9 17 -11 28 -6 25 11 -8 12 -9 -6 48 -8
26 -11 47 -8 47 3 0 1 6 -4 13 -5 6 -8 24 -7 39 2 15 -1 30 -6 33 -5 3 -6 13
-3 22 4 9 2 14 -3 11 -5 -3 -10 18 -11 49 -1 29 -5 62 -9 71 -8 19 -10 29 -12
55 -1 11 -7 16 -14 11 -10 -6 -10 -4 0 7 13 14 17 33 5 26 -5 -3 -8 9 -8 26
-1 18 -4 48 -8 67 -4 19 -9 48 -12 65 -4 16 -12 33 -18 37 -8 5 -8 8 -1 8 7 0
8 15 0 49 -5 28 -12 48 -15 46 -3 -2 -6 7 -7 18 -2 39 -15 131 -20 139 -3 5
-7 22 -9 39 -3 17 -10 37 -16 45 -9 11 -8 14 1 14 9 0 7 7 -6 21 -13 15 -15
23 -7 26 8 3 9 12 4 26 -10 27 -11 30 -11 63 0 14 -4 23 -8 20 -4 -2 -8 3 -8
12 -1 9 -4 33 -8 52 -4 19 -8 41 -8 48 -1 6 -4 12 -7 12 -4 0 -6 12 -5 28 1
15 -3 36 -9 47 -6 11 -12 31 -13 45 -2 22 -8 48 -18 85 -2 6 -6 22 -11 37 -4
16 -10 26 -14 23 -4 -2 -5 9 -3 26 2 17 0 29 -7 29 -6 0 -8 7 -5 15 3 8 2 20
-2 27 -4 7 -9 21 -9 31 -1 10 -8 23 -16 28 -12 7 -12 9 0 9 11 0 11 3 0 17 -8
9 -12 17 -10 17 2 1 -2 24 -9 53 -8 29 -16 50 -20 48 -3 -2 -6 9 -5 23 0 18
-5 26 -14 24 -11 -2 -12 0 -3 11 7 8 8 17 4 21 -7 8 -8 13 -11 42 0 9 -6 12
-13 8 -7 -4 -8 -3 -4 5 10 15 -3 73 -15 66 -5 -4 -6 0 -3 8 3 8 1 18 -5 21 -6
4 -7 14 -4 23 5 12 3 14 -7 8 -9 -5 -11 -4 -6 3 10 17 -36 165 -46 149 -5 -7
-6 -1 -2 16 3 15 2 27 -3 27 -5 0 -10 7 -11 15 -1 8 -3 22 -4 30 -1 8 -8 15
-17 15 -14 0 -14 2 -1 10 13 9 12 12 -4 25 -11 8 -14 15 -8 15 9 0 8 8 -3 30
-8 16 -15 32 -15 35 1 28 -1 35 -9 31 -5 -4 -8 2 -7 11 2 10 -2 21 -7 25 -6 3
-12 15 -13 25 -5 37 -14 65 -25 79 -6 8 -9 14 -6 14 3 0 -3 24 -14 53 -11 28
-22 60 -26 70 -3 9 -9 17 -13 17 -5 0 -6 10 -2 22 4 15 2 19 -8 13 -8 -5 -11
-3 -8 6 3 8 -1 26 -8 40 -7 15 -10 29 -7 33 4 3 1 6 -5 6 -7 0 -12 9 -12 19 0
11 -4 23 -10 26 -5 3 -10 13 -10 22 0 15 -26 79 -51 125 -5 10 -9 24 -9 32 0
8 -5 16 -11 18 -5 2 -11 10 -13 18 -2 8 -9 29 -16 45 -7 17 -14 33 -14 37 -1
3 -4 10 -8 14 -5 4 -8 16 -8 27 0 14 -5 17 -16 13 -14 -5 -15 -4 -5 8 9 11 8
17 -4 30 -9 9 -14 16 -10 16 3 0 -1 13 -9 28 -10 20 -11 33 -4 46 5 10 8 26 5
37 -3 10 -2 17 3 14 10 -6 44 101 36 114 -3 5 -2 11 3 13 5 1 12 18 16 37 6
26 4 32 -6 27 -8 -4 -6 -1 3 7 10 8 15 17 11 20 -3 4 -2 7 4 7 5 0 10 6 11 13
0 6 4 26 8 42 4 17 8 40 8 53 1 12 5 22 10 22 4 0 6 7 2 15 -3 8 -2 15 3 15 5
0 8 12 8 28 -1 15 4 36 10 47 10 19 22 75 27 121 1 11 5 25 9 31 4 7 3 14 -3
18 -5 3 -10 14 -9 23 0 14 2 13 9 -3 9 -20 10 -18 15 20 2 11 6 36 10 55 4 19
9 51 11 70 1 19 3 35 4 35 4 0 12 43 13 70 1 17 5 32 8 35 3 3 9 17 13 33 4
19 2 27 -6 27 -9 0 -10 3 -2 8 10 6 22 60 31 132 1 14 5 43 8 65 3 22 7 58 10
80 2 22 4 40 5 40 1 0 3 10 6 23 2 12 0 22 -6 22 -5 0 -7 7 -4 15 4 8 11 12
16 9 7 -4 9 6 6 29 -2 20 1 39 7 41 5 2 4 5 -3 5 -10 1 -10 6 -2 22 7 11 9 31
6 43 -3 13 -3 26 1 30 14 14 27 140 13 131 -6 -3 -7 0 -4 9 3 9 9 14 13 12 3
-2 6 19 6 47 0 29 3 60 8 71 7 13 6 16 -3 11 -9 -6 -9 -2 0 15 7 12 10 33 7
46 -2 13 0 21 5 18 4 -3 7 21 5 53 -2 32 0 70 4 85 4 15 3 30 -2 33 -5 4 -9
12 -9 18 0 7 4 6 10 -3 8 -12 10 -9 10 11 0 15 3 42 6 60 4 26 3 30 -5 19 -7
-9 -11 -10 -11 -3 0 6 5 15 10 18 6 3 10 15 10 26 0 11 -4 17 -10 14 -5 -3
-10 -1 -10 4 0 6 5 11 11 11 6 0 9 9 6 20 -3 11 -1 20 4 20 5 0 4 9 -3 20 -9
14 -10 23 -3 28 12 8 13 32 2 49 -4 6 -2 15 4 18 5 4 8 13 5 21 -3 8 -2 14 2
14 4 0 9 14 10 31 2 21 -1 28 -9 23 -8 -5 -9 -3 -3 7 13 22 14 143 0 151 -7 5
-5 8 6 8 14 0 15 5 8 30 -6 21 -5 30 3 30 8 0 8 3 0 11 -8 8 -8 20 -3 35 5 13
6 24 2 24 -9 0 -7 63 2 78 4 7 2 12 -4 12 -8 0 -8 6 0 20 6 11 7 20 3 20 -9 0
-9 93 0 107 3 5 2 15 -3 23 -5 8 -5 22 1 32 6 12 6 18 0 18 -7 0 -7 9 -1 25 7
17 6 25 -1 25 -8 0 -8 4 0 13 6 8 8 17 4 20 -8 9 -8 75 0 83 3 4 2 15 -4 26
-7 14 -7 23 2 34 7 8 7 14 1 14 -12 0 -10 33 3 42 7 5 7 8 0 8 -10 0 -11 82
-1 98 3 5 -1 21 -9 36 -8 14 -10 24 -4 21 9 -6 8 13 -4 193 -2 24 -10 48 -18
53 -10 7 -11 11 -2 17 17 11 14 92 -4 121 -8 13 -10 20 -4 17 15 -10 14 7 -1
22 -9 9 -9 12 1 12 7 0 9 5 5 12 -4 7 -9 33 -10 58 -5 80 -8 100 -13 100 -3 0
-7 21 -8 48 -4 74 -7 92 -13 92 -4 0 -5 14 -2 30 2 17 0 30 -5 30 -5 0 -8 14
-5 30 3 24 1 30 -14 30 -14 0 -16 2 -6 9 16 10 6 60 -17 79 -9 8 -10 11 -3 7
18 -9 15 36 -5 64 -9 14 -12 21 -6 18 7 -5 9 0 6 14 -3 12 -11 18 -19 15 -8
-3 -14 -1 -14 4 0 6 5 10 11 10 8 0 7 6 -2 17 -12 14 -12 16 0 8 11 -6 12 -5
5 6 -5 8 -9 21 -9 29 0 8 -6 14 -14 12 -11 -2 -12 0 -3 10 7 9 8 19 2 28 -6 8
-10 11 -10 5 0 -5 -6 -1 -12 9 -7 13 -8 21 -1 23 13 5 -4 56 -31 97 -11 18
-13 26 -5 21 11 -6 12 -5 2 6 -7 7 -13 21 -13 30 0 10 -5 19 -11 21 -9 3 -15
22 -18 51 -1 5 -5 5 -11 2 -6 -3 -7 1 -4 9 3 9 1 16 -5 16 -6 0 -11 8 -11 18
0 9 -5 24 -11 32 -9 12 -10 11 -5 -5 6 -20 6 -20 -9 0 -9 11 -11 21 -6 23 14
5 -10 42 -27 42 -7 0 -10 5 -7 10 8 13 -14 42 -26 34 -5 -3 -6 1 -4 9 3 7 -3
23 -13 35 -21 24 -38 30 -26 10 4 -7 -2 -5 -14 6 -12 10 -20 23 -19 29 1 6 -3
11 -10 12 -12 0 -67 55 -55 55 5 0 13 -5 20 -12 7 -7 12 -9 12 -5 0 12 -73 56
-83 50 -6 -3 -7 -1 -4 4 9 15 -17 35 -47 37 -13 0 -22 4 -20 7 5 9 -25 21 -36
14 -4 -3 -11 2 -14 11 -4 11 -14 15 -31 12 -13 -3 -22 -2 -20 2 7 11 -43 22
-57 14 -6 -4 -8 -3 -5 2 3 6 -18 14 -48 20 -29 5 -52 7 -50 4 2 -3 -5 -6 -15
-6 -10 0 -16 4 -14 8 5 7 -34 10 -146 11 -52 1 -207 -11 -242 -19 -12 -2 -39
-6 -58 -9 -19 -3 -46 -7 -60 -10 -14 -3 -35 -8 -47 -10 -13 -3 -33 -7 -45 -10
-81 -17 -117 -28 -113 -35 2 -4 -7 -5 -22 -2 -18 3 -24 1 -19 -6 5 -8 2 -10
-8 -6 -9 3 -16 2 -16 -4 0 -6 -8 -9 -17 -8 -10 2 -36 -3 -57 -11 -22 -7 -53
-16 -70 -19 -17 -3 -33 -10 -37 -16 -4 -6 -12 -7 -18 -4 -6 4 -11 2 -11 -4 0
-6 -4 -9 -9 -5 -6 3 -16 -1 -23 -8 -7 -8 -21 -12 -32 -9 -11 3 -17 1 -13 -5 4
-6 -1 -10 -11 -10 -36 0 -43 -3 -36 -15 4 -7 3 -10 -1 -5 -5 4 -18 -1 -29 -10
-20 -17 -20 -17 -6 1 14 18 14 19 -7 7 -13 -6 -23 -16 -23 -22 0 -5 -11 -7
-25 -3 -16 4 -25 2 -25 -6 0 -6 -4 -9 -9 -6 -5 3 -14 -1 -21 -9 -7 -8 -16 -12
-21 -10 -8 6 -49 -14 -60 -28 -3 -5 -9 -8 -13 -8 -25 4 -36 0 -30 -11 4 -6 3
-8 -4 -4 -12 7 -63 -14 -57 -24 2 -4 -6 -6 -18 -5 -24 2 -48 -15 -40 -29 3 -4
-5 -5 -17 -1 -17 5 -21 4 -15 -5 5 -8 4 -11 -3 -7 -14 9 -43 -3 -36 -14 3 -5
-2 -6 -10 -3 -9 3 -31 -3 -49 -15 -19 -11 -37 -18 -40 -14 -4 3 -7 1 -7 -5 0
-7 -3 -11 -7 -11 -20 3 -26 -2 -13 -11 12 -7 9 -9 -10 -8 -32 2 -81 -22 -73
-35 3 -6 1 -7 -6 -3 -7 4 -26 -5 -46 -23 -19 -17 -41 -28 -49 -25 -7 3 -16 -2
-20 -11 -3 -9 -10 -14 -15 -10 -14 8 -92 -35 -84 -48 3 -6 1 -7 -5 -3 -16 9
-69 -20 -82 -45 -8 -13 -17 -18 -30 -14 -10 3 -24 -1 -32 -8 -8 -8 -24 -18
-36 -21 -12 -4 -22 -13 -22 -21 0 -7 -7 -16 -16 -19 -15 -6 -15 -4 -3 11 11
14 9 13 -13 -2 -21 -16 -24 -23 -15 -35 10 -13 10 -13 -5 -2 -13 10 -22 11
-37 2 -12 -6 -21 -13 -21 -16 0 -3 5 -2 10 1 16 10 11 -1 -7 -16 -14 -12 -16
-12 -9 0 6 9 5 12 -5 9 -8 -3 -13 -10 -12 -16 2 -6 -6 -9 -17 -7 -12 2 -18 0
-15 -5 3 -4 -10 -14 -30 -20 -19 -6 -44 -23 -55 -38 -12 -15 -19 -21 -15 -15
4 9 1 11 -9 7 -9 -3 -16 -10 -16 -14 0 -4 -16 -15 -35 -24 -20 -10 -33 -21
-30 -26 3 -6 -1 -7 -9 -4 -9 3 -16 1 -16 -6 0 -6 -4 -8 -10 -5 -5 3 -10 1 -10
-4 0 -6 -6 -11 -13 -11 -8 0 -22 -10 -33 -22 l-19 -23 23 19 c34 29 26 14 -10
-20 -18 -16 -26 -21 -19 -11 12 14 11 17 -3 17 -9 0 -16 -4 -16 -10 0 -5 -18
-19 -40 -30 -22 -11 -40 -27 -40 -35 0 -8 -8 -15 -18 -15 -23 0 -64 -29 -57
-41 3 -5 -1 -6 -9 -3 -11 4 -16 0 -16 -11 0 -12 -5 -15 -16 -11 -12 4 -15 2
-11 -9 4 -8 1 -17 -5 -21 -7 -4 -8 -3 -4 4 4 7 2 12 -4 12 -6 0 -13 -7 -16
-15 -4 -8 -12 -15 -19 -15 -7 0 -19 -8 -26 -17 -13 -17 -13 -17 6 -3 20 15 20
14 1 -8 -20 -23 -32 -30 -20 -11 4 7 1 10 -7 7 -8 -3 -13 -12 -13 -21 1 -10
-4 -13 -14 -10 -10 4 -13 2 -8 -5 4 -7 2 -10 -7 -6 -8 3 -20 -3 -28 -13 -13
-17 -13 -17 6 -3 19 14 19 14 6 -3 -8 -10 -20 -16 -27 -13 -7 3 -15 -2 -18
-10 -3 -8 -10 -14 -16 -14 -17 0 -42 -29 -35 -40 4 -6 3 -10 -2 -9 -20 3 -27
-2 -13 -11 11 -8 8 -9 -12 -4 -22 5 -28 3 -28 -11 0 -10 -5 -13 -12 -9 -7 5
-9 2 -5 -9 4 -11 2 -14 -9 -10 -7 3 -14 0 -14 -6 0 -6 -6 -11 -14 -11 -18 0
-58 -54 -48 -65 4 -5 1 -5 -6 -1 -7 4 -19 2 -27 -4 -8 -7 -15 -8 -15 -3 0 9
-6 11 -49 15 -11 1 -18 5 -15 9 6 11 -164 61 -178 53 -7 -4 -8 -3 -4 4 4 7 2
13 -3 13 -13 2 -28 5 -38 9 -5 2 -12 4 -18 5 -5 1 -28 9 -49 18 -22 10 -41 15
-44 12 -3 -3 0 -5 6 -5 7 0 12 -5 12 -12 0 -6 -11 -1 -25 12 -14 13 -25 20
-25 16 0 -5 -6 -4 -12 1 -12 9 -76 26 -105 28 -6 0 -15 4 -19 8 -12 12 -26 8
-18 -5 4 -7 -2 -5 -14 6 -11 10 -32 19 -46 20 -14 0 -26 4 -26 8 0 3 -14 5
-30 3 -17 -2 -28 0 -25 5 7 11 -59 24 -80 16 -9 -3 -14 -2 -11 3 5 7 -32 19
-71 23 -5 0 -18 4 -31 9 -13 5 -37 11 -55 14 -18 3 -40 8 -49 11 -10 3 -18 1
-18 -5 0 -6 -5 -11 -11 -11 -5 0 -7 5 -4 10 3 6 3 11 -2 11 -81 13 -98 16
-113 22 -38 13 -99 24 -94 16 3 -5 0 -9 -5 -9 -6 0 -11 4 -11 8 0 13 -114 32
-121 20 -4 -6 -8 -5 -11 3 -3 9 -19 13 -46 13 -23 -1 -42 2 -42 6 0 14 -74 20
-82 7 -6 -9 -8 -9 -8 0 0 6 -8 11 -17 11 -10 0 -27 3 -37 7 -14 6 -17 5 -11
-4 6 -10 3 -11 -15 -1 -34 18 -81 30 -75 19 4 -5 1 -9 -4 -9 -6 0 -11 5 -11
11 0 7 -12 10 -30 7 -16 -3 -30 -2 -30 2 0 3 -15 7 -32 8 -18 1 -45 5 -60 8
-17 3 -28 1 -28 -5 0 -6 -5 -11 -11 -11 -5 0 -7 5 -4 10 7 12 4 13 -56 15 -25
1 -51 5 -57 9 -7 4 -12 2 -12 -5 0 -9 -4 -9 -15 1 -8 6 -19 9 -24 6 -5 -4 -12
-2 -16 4 -4 6 -10 8 -15 5 -5 -3 -20 -1 -34 5 -14 5 -26 6 -26 1 0 -4 -7 -8
-15 -8 -8 0 -12 4 -10 8 3 4 -14 7 -38 8 -90 3 -133 8 -146 16 -10 6 -12 4 -6
-6 7 -12 6 -12 -7 -1 -22 18 -170 25 -180 9 -5 -8 -8 -6 -8 6 0 14 -10 17 -57
18 -139 2 -173 4 -173 12 0 5 -4 6 -8 3 -5 -3 -23 -8 -41 -11 -25 -4 -31 -2
-25 7 6 10 4 10 -8 0 -11 -9 -18 -9 -23 -3 -3 6 -16 11 -28 11 -63 -1 -251 11
-255 15 -3 3 -12 -1 -20 -8 -12 -9 -16 -9 -19 0 -3 9 -10 10 -23 3 -10 -6 -21
-7 -23 -2 -3 4 -40 5 -82 2 -42 -3 -78 -2 -80 1 -2 3 -27 3 -55 -1 -27 -4 -50
-2 -50 2 0 5 -5 6 -10 3 -6 -4 -57 -8 -113 -10 -56 -1 -115 -8 -130 -14 -16
-6 -26 -8 -24 -3 4 6 -59 8 -73 2 -3 -1 -13 -1 -23 0 -10 1 -26 -4 -35 -12
-11 -9 -14 -9 -8 -1 9 16 -42 15 -63 -1 -11 -8 -13 -8 -7 2 4 7 1 12 -9 12 -9
0 -14 -3 -12 -7 3 -5 -21 -7 -54 -6 -32 1 -59 -1 -59 -5 0 -4 -21 -7 -47 -6
-27 1 -51 -4 -55 -10 -5 -7 -8 -7 -8 2 0 10 -9 12 -31 7 -17 -4 -37 -8 -43 -9
-6 -1 -15 -4 -21 -7 -5 -2 -25 -4 -42 -4 -18 0 -33 -4 -33 -10 0 -7 -3 -7 -8
0 -7 11 -63 14 -56 3 2 -3 -12 -5 -31 -3 -19 2 -37 0 -39 -3 -2 -4 -27 -6 -55
-6 -28 1 -49 -2 -46 -6 2 -3 -6 -6 -18 -5 -12 1 -28 -3 -36 -9 -9 -7 -15 -8
-18 -1 -2 6 -21 9 -43 7 -28 -3 -40 -9 -41 -21 0 -10 -2 -11 -6 -3 -6 15 -49
16 -59 1 -4 -8 -9 -7 -15 2 -5 8 -9 10 -9 4 0 -5 -14 -10 -32 -9 -18 0 -50 -3
-73 -9 -22 -5 -50 -9 -62 -8 -13 0 -23 -3 -23 -9 0 -5 -10 -7 -22 -5 -12 3
-26 -1 -30 -8 -4 -7 -8 -7 -8 -2 0 7 -15 9 -35 7 -19 -2 -35 -7 -35 -11 0 -4
-16 -5 -36 -3 -20 3 -34 1 -31 -4 3 -5 -9 -10 -26 -10 -32 -2 -92 -11 -92 -14
0 -1 -12 -3 -26 -4 -14 0 -33 -7 -42 -15 -10 -7 -17 -9 -17 -4 0 5 -13 8 -30
5 -16 -2 -27 -8 -24 -13 3 -5 -2 -6 -10 -3 -8 3 -21 2 -27 -2 -11 -7 -55 -13
-101 -15 -10 0 -20 -4 -23 -9 -3 -4 -14 -6 -25 -3 -11 3 -20 1 -20 -3 0 -5
-15 -10 -33 -11 -47 -2 -91 -14 -99 -27 -6 -8 -8 -8 -8 0 0 7 -10 9 -25 6 -14
-2 -23 -8 -20 -12 2 -4 -6 -7 -18 -6 -12 1 -35 -2 -50 -7 -21 -7 -25 -12 -15
-18 7 -5 8 -9 3 -9 -6 0 -16 5 -22 11 -7 7 -17 8 -25 3 -7 -5 -24 -10 -38 -12
-14 -2 -34 -9 -45 -16 -11 -7 -31 -12 -45 -11 -14 1 -29 0 -35 -4 -5 -3 -12
-6 -15 -7 -47 -9 -99 -28 -94 -35 3 -5 1 -9 -5 -9 -5 0 -11 4 -13 9 -2 5 -28
-1 -58 -14 -30 -13 -59 -21 -64 -18 -4 3 -11 1 -15 -5 -4 -7 -18 -14 -31 -16
-14 -2 -27 -5 -30 -6 -3 -2 -8 -2 -12 -1 -5 0 -8 -3 -8 -9 0 -5 -7 -6 -17 -3
-10 4 -14 2 -9 -5 3 -6 1 -14 -5 -18 -8 -4 -9 -3 -5 4 10 17 -29 15 -46 -1 -7
-8 -19 -12 -26 -9 -6 2 -12 -1 -12 -7 0 -6 -3 -10 -7 -10 -20 3 -34 -2 -28
-11 3 -5 1 -10 -4 -10 -6 0 -11 4 -11 10 0 5 -7 7 -15 4 -8 -4 -12 -11 -9 -16
4 -6 -1 -6 -13 1 -11 6 -23 7 -27 4 -3 -3 -6 1 -6 10 0 15 -11 21 -31 19 -4
-1 -6 6 -5 15 0 10 -9 20 -24 24 -14 4 -21 7 -17 8 5 1 1 8 -7 17 -9 8 -20 13
-25 9 -5 -3 -13 0 -17 6 -4 8 -3 9 4 5 7 -4 12 -3 12 2 0 5 -15 17 -32 26 -18
8 -29 16 -24 16 6 0 1 6 -9 14 -11 8 -23 12 -27 10 -5 -3 -8 0 -8 7 0 12 -29
38 -44 39 -5 0 -3 -7 4 -15 8 -10 9 -15 2 -15 -6 0 -16 10 -23 21 -8 15 -8 19
0 15 6 -4 11 -4 11 -1 0 16 -87 78 -99 71 -5 -3 -14 1 -21 9 -7 8 -17 12 -23
8 -6 -4 -7 -1 -3 6 6 9 13 8 27 -5 10 -9 19 -14 19 -9 0 14 -34 34 -60 35 -23
1 -23 2 -5 10 17 7 17 9 3 9 -10 1 -18 6 -18 12 0 8 -6 7 -17 -2 -13 -11 -15
-11 -9 -1 8 14 -23 44 -36 36 -5 -3 -8 0 -8 5 0 6 -8 11 -17 11 -16 0 -16 2
-3 11 12 9 11 10 -7 6 -13 -3 -20 0 -18 7 3 6 -7 20 -22 30 -14 11 -23 14 -19
8 4 -7 2 -12 -3 -12 -6 0 -11 4 -11 10 0 12 -41 50 -54 50 -6 0 -4 -5 4 -10
13 -8 12 -10 -2 -10 -10 0 -18 6 -18 14 0 7 -8 20 -17 27 -11 10 -14 10 -9 2
4 -7 3 -13 -2 -13 -5 0 -12 10 -15 21 -4 14 -11 20 -21 16 -9 -4 -15 -1 -13 6
1 7 -8 11 -23 9 -18 -1 -21 1 -11 7 11 7 9 12 -10 22 -13 7 -30 12 -38 10 -7
-1 -10 2 -7 7 3 6 -5 17 -19 26 -14 9 -25 12 -25 6 0 -5 -4 -10 -10 -10 -5 0
-6 8 -3 17 5 13 2 15 -11 10 -10 -4 -15 -3 -11 3 3 6 1 10 -6 10 -7 0 -23 10
-36 22 -21 19 -26 20 -34 8 -9 -13 -10 -13 -6 1 5 15 -29 46 -45 41 -5 -1 -8
3 -8 9 0 6 -7 8 -16 5 -9 -3 -25 4 -39 20 -28 30 -113 76 -126 68 -5 -3 -9 2
-9 10 0 9 -7 16 -15 16 -8 0 -15 4 -15 9 0 6 -9 8 -20 6 -11 -2 -19 -1 -19 3
3 20 -2 25 -11 12 -9 -13 -10 -13 -10 0 0 8 -14 23 -31 32 -17 10 -27 12 -23
5 4 -6 -3 -3 -16 8 -13 11 -20 14 -16 8 5 -9 2 -11 -8 -7 -9 3 -14 10 -11 14
3 4 -11 17 -31 29 -19 12 -32 15 -28 9 4 -7 -5 -2 -19 11 -15 14 -27 21 -27
16 0 -4 -8 -1 -17 7 -30 25 -47 33 -39 17 4 -8 1 -6 -7 4 -8 9 -23 17 -34 17
-11 0 -28 9 -38 20 -14 16 -20 17 -27 8 -6 -10 -8 -10 -8 -1 0 7 -10 17 -21
24 -17 9 -20 8 -14 -3 5 -7 -3 -2 -18 11 -14 12 -30 20 -35 17 -6 -3 -17 -1
-24 6 -21 20 -56 38 -73 38 -8 0 -15 5 -15 12 0 6 -3 8 -6 5 -4 -3 -16 0 -28
8 -11 8 -25 15 -31 15 -5 0 -3 -5 5 -10 8 -5 10 -10 4 -10 -6 0 -19 9 -28 19
-10 11 -25 17 -34 14 -11 -5 -13 -3 -7 7 6 10 2 11 -21 6 -17 -4 -24 -3 -16 2
9 6 6 12 -12 20 -14 6 -28 7 -31 2 -3 -4 3 -11 12 -14 14 -4 13 -4 -2 -2 -11
1 -19 7 -18 13 2 9 -66 43 -97 49 -3 0 -14 4 -25 9 -79 33 -116 44 -135 40
-13 -3 -18 0 -14 7 5 7 0 9 -14 6 -12 -4 -20 -2 -16 3 5 9 -9 13 -33 10 -7 -1
-13 4 -13 11 0 9 -3 9 -10 -2 -6 -9 -10 -10 -10 -3 0 7 -19 17 -42 23 -24 6
-53 15 -66 20 -17 7 -21 7 -16 -1 3 -6 -5 -3 -20 6 -15 10 -29 15 -33 11 -3
-3 -13 0 -21 7 -13 10 -14 9 -8 -1 7 -12 4 -12 -14 -2 -12 7 -38 12 -56 12
-20 0 -31 4 -28 10 4 6 -6 8 -25 5 -17 -3 -29 -1 -25 4 3 5 -10 10 -28 10 -47
2 -94 7 -165 17 -40 6 -60 5 -56 -1 3 -6 1 -7 -5 -3 -7 4 -30 9 -53 12 -30 4
-39 2 -33 -7 5 -8 3 -9 -7 -3 -12 7 -67 13 -72 7z m-10 -19 c-3 -3 -12 -4 -19
-1 -8 3 -5 6 6 6 11 1 17 -2 13 -5z m13863 -104 c0 -5 -2 -10 -4 -10 -3 0 -8
5 -11 10 -3 6 -1 10 4 10 6 0 11 -4 11 -10z m-1213 -36 c-3 -3 -12 -4 -19 -1
-8 3 -5 6 6 6 11 1 17 -2 13 -5z m-102 -34 c-3 -5 -12 -10 -18 -10 -7 0 -6 4
3 10 19 12 23 12 15 0z m-11455 -40 c13 -8 13 -10 -2 -10 -9 0 -20 5 -23 10
-8 13 5 13 25 0z m-1682 -110 c-7 -10 -14 -17 -17 -15 -4 4 18 35 25 35 2 0
-1 -9 -8 -20z m11963 -403 c-10 -9 -11 -8 -5 6 3 10 9 15 12 12 3 -3 0 -11 -7
-18z m-251 -141 c0 -2 -7 -7 -16 -10 -8 -3 -12 -2 -9 4 6 10 25 14 25 6z
m-1163 -632 c-3 -3 -12 -4 -19 -1 -8 3 -5 6 6 6 11 1 17 -2 13 -5z m298 -4
c-3 -5 -11 -10 -16 -10 -6 0 -7 5 -4 10 3 6 11 10 16 10 6 0 7 -4 4 -10z
m-238 -6 c-3 -3 -12 -4 -19 -1 -8 3 -5 6 6 6 11 1 17 -2 13 -5z m4446 -499
c-3 -9 -8 -14 -10 -11 -3 3 -2 9 2 15 9 16 15 13 8 -4z m-249 -3951 c3 -8 2
-12 -4 -9 -6 3 -10 10 -10 16 0 14 7 11 14 -7z m1276 -5138 c0 -2 -8 -10 -17
-17 -16 -13 -17 -12 -4 4 13 16 21 21 21 13z m-430 -166 c0 -5 -5 -10 -11 -10
-5 0 -7 5 -4 10 3 6 8 10 11 10 2 0 4 -4 4 -10z m-123 -632 c-3 -8 -6 -5 -6 6
-1 11 2 17 5 13 3 -3 4 -12 1 -19z m-14966 -955 c13 -16 12 -17 -3 -4 -10 7
-18 15 -18 17 0 8 8 3 21 -13z m69 -63 c0 -5 -2 -10 -4 -10 -3 0 -8 5 -11 10
-3 6 -1 10 4 10 6 0 11 -4 11 -10z m14821 -1377 c13 -16 12 -17 -3 -4 -17 13
-22 21 -14 21 2 0 10 -8 17 -17z m-17111 -1903 c0 -5 -2 -10 -4 -10 -3 0 -8 5
-11 10 -3 6 -1 10 4 10 6 0 11 -4 11 -10z m-963 -136 c-3 -3 -12 -4 -19 -1 -8
3 -5 6 6 6 11 1 17 -2 13 -5z m1193 -926 c0 -6 -6 -5 -15 2 -8 7 -15 14 -15
16 0 2 7 1 15 -2 8 -4 15 -11 15 -16z m134 -357 c-2 -3 -12 3 -22 13 -16 17
-16 18 5 5 12 -7 20 -15 17 -18z m466 -467 c0 -8 -19 -13 -24 -6 -3 5 1 9 9 9
8 0 15 -2 15 -3z m15590 -698 c0 -2 -8 -10 -17 -17 -16 -13 -17 -12 -4 4 13
16 21 21 21 13z m-290 -310 c0 -2 -8 -10 -17 -17 -16 -13 -17 -12 -4 4 13 16
21 21 21 13z m-17355 -1346 c3 -5 1 -10 -4 -10 -6 0 -11 5 -11 10 0 6 2 10 4
10 3 0 8 -4 11 -10z m82 -182 c-3 -8 -6 -5 -6 6 -1 11 2 17 5 13 3 -3 4 -12 1
-19z m213 -313 c11 -13 10 -14 -4 -9 -9 3 -16 10 -16 15 0 13 6 11 20 -6z
m13380 -4369 c0 -2 -7 -7 -16 -10 -8 -3 -12 -2 -9 4 6 10 25 14 25 6z"/>
<path d="M22275 25750 c3 -5 8 -10 11 -10 2 0 4 5 4 10 0 6 -5 10 -11 10 -5 0
-7 -4 -4 -10z"/>
<path d="M22315 25710 c3 -5 8 -10 11 -10 2 0 4 5 4 10 0 6 -5 10 -11 10 -5 0
-7 -4 -4 -10z"/>
<path d="M19964 25404 c-18 -14 -18 -15 4 -4 12 6 22 13 22 15 0 8 -5 6 -26
-11z"/>
<path d="M19715 25270 c-3 -5 -1 -10 4 -10 6 0 11 5 11 10 0 6 -2 10 -4 10 -3
0 -8 -4 -11 -10z"/>
<path d="M10480 25206 c0 -2 7 -7 16 -10 8 -3 12 -2 9 4 -6 10 -25 14 -25 6z"/>
<path d="M7740 11696 c0 -2 8 -10 18 -17 15 -13 16 -12 3 4 -13 16 -21 21 -21
13z"/>
<path d="M7950 11486 c0 -2 7 -7 16 -10 8 -3 12 -2 9 4 -6 10 -25 14 -25 6z"/>
<path d="M5960 9816 c0 -2 7 -7 16 -10 8 -3 12 -2 9 4 -6 10 -25 14 -25 6z"/>
<path d="M5131 9650 c-13 -11 -19 -20 -14 -20 6 0 18 9 28 20 23 25 17 25 -14
0z"/>
<path d="M9165 7919 c-4 -6 -5 -12 -2 -15 2 -3 7 2 10 11 7 17 1 20 -8 4z"/>
<path d="M4805 5550 c3 -5 8 -10 11 -10 2 0 4 5 4 10 0 6 -5 10 -11 10 -5 0
-7 -4 -4 -10z"/>
<path d="M5980 4130 c0 -5 5 -10 11 -10 5 0 7 5 4 10 -3 6 -8 10 -11 10 -2 0
-4 -4 -4 -10z"/>
</g>
</svg>
